<?xml version="1.0" encoding="utf-8"?>
<!-- Generator: Adobe Illustrator 26.0.3, SVG Export Plug-In . SVG Version: 6.00 Build 0)  -->
<svg version="1.1" xmlns="http://www.w3.org/2000/svg" xmlns:xlink="http://www.w3.org/1999/xlink" x="0px" y="0px"
	 viewBox="0 0 76.8 92.95" style="enable-background:new 0 0 76.8 92.95;" xml:space="preserve">
<style type="text/css">
	.st0{fill:#42BC97;}
	.st1{fill:#FFFFFF;}
	.st2{display:none;}
	.st3{display:inline;}
	.st4{fill:#67308F;}
	.st5{display:inline;fill:#333333;}
</style>
<g id="Layer_1">
	<g>
		<g>
			<path class="st0" d="M35.12,88.97c-1.38-0.16-2.76-0.29-4.13-0.48c-4.39-0.63-8.55-1.9-12.09-4.72
				c-3.88-3.08-5.87-7.19-6.41-12.06c-0.3-2.71-0.16-5.4,0.3-8.08c0.03-0.18,0.02-0.37,0.03-0.6c-0.5-0.11-1-0.2-1.48-0.32
				c-4.64-1.12-9.39-6.08-6.78-13.27c1.88-5.18,5.18-9.38,9.24-13.01c1.67-1.5,3.61-2.56,5.82-3.09c2.41-0.58,4.71-0.36,6.91,0.83
				c0.22,0.12,0.64,0.11,0.84-0.03c5.87-4.02,16.18-4.03,22.06-0.14c0.19,0.13,0.58,0.17,0.77,0.07c3.16-1.81,6.35-1.6,9.52-0.11
				c1.05,0.5,2.09,1.11,2.98,1.86c4.08,3.42,7.26,7.54,9.36,12.46c0.81,1.92,1.29,3.93,1.01,6.03c-0.57,4.21-3.83,7.53-8.12,8.31
				c-0.26,0.05-0.51,0.1-0.7,0.14c0.15,2.01,0.37,3.95,0.41,5.89c0.11,4.81-1.04,9.24-4.25,12.96c-2.91,3.37-6.71,5.26-10.97,6.21
				c-2.23,0.5-4.53,0.69-6.8,1.02c-0.26,0.04-0.52,0.09-0.78,0.14C39.61,88.97,37.37,88.97,35.12,88.97z M40.92,84.1
				c3.95-0.17,7.7-0.64,11.21-2.25c4.03-1.85,6.61-4.9,7.42-9.33c0.65-3.56,0.46-7.12-0.62-10.56c-1.27-4.02-2.72-7.99-4.17-11.96
				c-0.67-1.83-1.43-3.63-2.31-5.37c-2.51-5-6.35-8.19-12.13-8.62c-5.23-0.39-9.95,0.69-13.35,5.02c-1.27,1.62-2.42,3.44-3.19,5.35
				c-1.92,4.78-3.65,9.65-5.35,14.51c-1.19,3.4-1.55,6.94-1.12,10.53c0.5,4.15,2.42,7.42,6.05,9.61c2.45,1.47,5.14,2.22,7.93,2.63
				c1.57,0.23,3.15,0.34,4.72,0.5c0.05-0.23,0.08-0.31,0.08-0.38c0-3.21,0.02-6.43-0.02-9.64c0-0.25-0.29-0.59-0.54-0.73
				c-1.89-1.08-3.36-2.55-4.28-4.53c-1.63-3.52,0.13-7.17,3.9-8.03c2.21-0.5,4.47-0.5,6.68-0.01c3.82,0.85,5.59,4.52,3.94,8.07
				c-0.92,1.98-2.38,3.48-4.31,4.49c-0.42,0.22-0.56,0.46-0.56,0.93c0.02,2.6,0.01,5.2,0.01,7.79
				C40.92,82.74,40.92,83.37,40.92,84.1z M53.69,37.77c3.39,4.12,5.06,8.95,6.73,13.78c0.68,1.97,1.41,3.92,2.15,5.87
				c0.08,0.22,0.35,0.53,0.54,0.53c3.33-0.01,5.7-2.78,5.15-5.57c-0.16-0.81-0.37-1.62-0.69-2.38c-1.71-4.01-4.34-7.36-7.59-10.2
				c-0.79-0.69-1.76-1.21-2.71-1.67C56.19,37.59,55.02,37.46,53.69,37.77z M23.1,38.07c-0.13-0.09-0.17-0.14-0.22-0.15
				c-0.13-0.03-0.26-0.06-0.39-0.06c-1.86-0.11-3.48,0.57-4.88,1.7c-3.72,3-6.6,6.69-8.36,11.16c-0.41,1.05-0.61,2.32-0.49,3.44
				c0.24,2.27,2.7,4.13,5.06,4.05c0.2-0.01,0.47-0.29,0.55-0.5c0.68-1.8,1.35-3.6,1.99-5.41C18.1,47.33,19.7,42.3,23.1,38.07z
				 M38.53,65.27c-0.76,0.08-1.57,0.11-2.34,0.28c-0.28,0.06-0.66,0.45-0.68,0.71c-0.11,1.07,2.03,3.14,3.09,3.06
				c0.1-0.01,0.21-0.04,0.31-0.08c1.18-0.5,2.04-1.35,2.55-2.52c0.3-0.68,0.08-1.08-0.66-1.22C40.06,65.39,39.31,65.35,38.53,65.27z
				"/>
			<path class="st0" d="M45.55,6.67c0.53,0.17,1.07,0.31,1.58,0.51c4.68,1.86,6.14,7.85,2.74,11.58c-2.07,2.27-4.27,4.43-6.52,6.53
				c-2.73,2.54-6.96,2.5-9.7-0.06c-2.17-2.03-4.26-4.14-6.31-6.29c-1.95-2.05-2.51-4.53-1.64-7.22c0.87-2.68,2.77-4.31,5.53-4.91
				c0.13-0.03,0.24-0.09,0.37-0.14c0.7,0,1.39,0,2.09,0c1.3,0.39,2.6,0.79,3.63,1.74c0.41,0.38,0.82,0.75,1.22,1.12
				c2.17-1.95,2.17-1.95,4.93-2.87C44.16,6.67,44.86,6.67,45.55,6.67z M38.51,22.52c0.66-0.36,1.34-0.55,1.79-0.98
				c1.97-1.88,3.89-3.82,5.8-5.77c1.07-1.1,1.08-2.61,0.07-3.58c-1-0.98-2.48-0.92-3.58,0.15c-0.75,0.73-1.47,1.48-2.22,2.21
				c-1.17,1.14-2.52,1.15-3.68,0.02c-0.77-0.75-1.51-1.52-2.27-2.26c-1.06-1.03-2.55-1.07-3.52-0.12c-1.02,0.99-1.02,2.49,0.05,3.58
				c1.91,1.94,3.83,3.89,5.8,5.77C37.19,21.96,37.85,22.16,38.51,22.52z"/>
			<path class="st1" d="M40.92,84.1c0-0.72,0-1.36,0-2c0-2.6,0.01-5.2-0.01-7.79c0-0.46,0.14-0.71,0.56-0.93
				c1.93-1.01,3.39-2.51,4.31-4.49c1.65-3.55-0.12-7.22-3.94-8.07c-2.21-0.49-4.47-0.49-6.68,0.01c-3.77,0.86-5.52,4.51-3.9,8.03
				c0.92,1.99,2.39,3.46,4.28,4.53c0.25,0.14,0.54,0.48,0.54,0.73c0.04,3.21,0.02,6.43,0.02,9.64c0,0.08-0.03,0.15-0.08,0.38
				c-1.57-0.16-3.16-0.27-4.72-0.5c-2.79-0.41-5.48-1.16-7.93-2.63c-3.63-2.18-5.55-5.45-6.05-9.61c-0.43-3.59-0.08-7.13,1.12-10.53
				c1.7-4.87,3.43-9.73,5.35-14.51c0.77-1.91,1.92-3.72,3.19-5.35c3.4-4.33,8.12-5.41,13.35-5.02c5.77,0.43,9.61,3.62,12.13,8.62
				c0.87,1.74,1.64,3.54,2.31,5.37c1.45,3.96,2.9,7.93,4.17,11.96c1.09,3.44,1.27,7,0.62,10.56c-0.81,4.43-3.39,7.48-7.42,9.33
				C48.62,83.45,44.87,83.93,40.92,84.1z M47.32,52.02c0-0.64,0.02-1.28,0-1.92c-0.05-1.3-1.02-2.28-2.28-2.33
				c-1.29-0.06-2.43,0.89-2.49,2.19c-0.07,1.33-0.07,2.67,0,4.01c0.06,1.31,1.19,2.26,2.48,2.22c1.25-0.04,2.25-1.03,2.3-2.32
				C47.34,53.25,47.32,52.63,47.32,52.02z M29.66,51.89c0,0.64-0.02,1.28,0,1.92c0.04,1.33,1.05,2.34,2.34,2.37
				c1.28,0.03,2.39-0.94,2.45-2.25c0.06-1.31,0.06-2.62,0-3.93c-0.06-1.32-1.16-2.28-2.45-2.24c-1.29,0.03-2.29,1.04-2.33,2.37
				C29.65,50.72,29.66,51.3,29.66,51.89z"/>
			<path class="st1" d="M53.69,37.77c1.33-0.3,2.49-0.17,3.56,0.35c0.95,0.47,1.92,0.98,2.71,1.67c3.26,2.85,5.88,6.2,7.59,10.2
				c0.32,0.75,0.53,1.57,0.69,2.38c0.55,2.8-1.82,5.56-5.15,5.57c-0.18,0-0.45-0.31-0.54-0.53c-0.74-1.95-1.47-3.9-2.15-5.87
				C58.75,46.72,57.09,41.89,53.69,37.77z"/>
			<path class="st1" d="M23.1,38.07c-3.4,4.23-5,9.26-6.74,14.23c-0.63,1.82-1.3,3.62-1.99,5.41c-0.08,0.21-0.36,0.49-0.55,0.5
				C11.46,58.3,9,56.44,8.76,54.16c-0.12-1.12,0.07-2.38,0.49-3.44c1.76-4.47,4.64-8.16,8.36-11.16c1.4-1.13,3.02-1.81,4.88-1.7
				c0.13,0.01,0.26,0.03,0.39,0.06C22.93,37.94,22.97,37.98,23.1,38.07z"/>
		</g>
		<path class="st1" d="M38.53,65.27c0.78,0.08,1.53,0.12,2.26,0.25c0.74,0.13,0.96,0.53,0.66,1.22c-0.51,1.17-1.37,2.02-2.55,2.52
			c-0.1,0.04-0.2,0.07-0.31,0.08c-1.05,0.08-3.19-1.99-3.09-3.06c0.03-0.27,0.41-0.65,0.68-0.71
			C36.97,65.39,37.77,65.35,38.53,65.27z"/>
		<path class="st0" d="M47.32,52.02c0,0.61,0.02,1.23,0,1.84c-0.06,1.29-1.05,2.28-2.3,2.32c-1.28,0.04-2.41-0.91-2.48-2.22
			c-0.07-1.33-0.07-2.67,0-4.01c0.07-1.31,1.21-2.25,2.49-2.19c1.26,0.06,2.23,1.03,2.28,2.33C47.34,50.73,47.32,51.38,47.32,52.02z
			"/>
		<path class="st0" d="M29.66,51.89c0-0.59-0.02-1.18,0-1.76c0.04-1.33,1.04-2.34,2.33-2.37c1.29-0.03,2.39,0.92,2.45,2.24
			c0.06,1.31,0.06,2.62,0,3.93c-0.06,1.31-1.16,2.28-2.45,2.25c-1.28-0.03-2.29-1.04-2.34-2.37C29.65,53.17,29.66,52.53,29.66,51.89
			z"/>
	</g>
</g>
<g id="Layer_2" class="st2">
	<g class="st3">
		<path class="st4" d="M73.73,71.11c-0.37,1.52-1.06,2.83-2.51,3.48c-0.7,0.31-1.51,0.51-2.28,0.52
			c-5.18,0.04-10.35,0.03-15.53,0.02c-3.6-0.01-5.69-3.21-4.37-6.68c0.77-2.02,1.58-4.02,2.43-6.19c-1.88,0.55-3.64,1.06-5.5,1.61
			c0.17,1.02,0.34,2.02,0.52,3.02c0.5,2.86,1.02,5.73,1.51,8.59c0.46,2.75-1.09,5.08-3.66,5.57c-2.47,0.47-4.77-1.23-5.26-3.92
			c-0.94-5.21-1.86-10.42-2.77-15.63c-0.46-2.62,0.95-4.79,3.57-5.56c2.61-0.77,5.21-1.53,7.82-2.3c0.22-0.06,0.44-0.13,0.74-0.23
			c-0.48-2.3-0.95-4.57-1.43-6.92c-0.63,0.61-1.17,1.17-1.74,1.68c-2.74,2.4-5.99,3.57-9.51,4.01c-1.08,0.14-2.17,0.24-3.26,0.22
			c-0.65-0.01-1.33-0.19-1.93-0.46c-0.4-0.18-0.68-0.18-1.09-0.1c-1.94,0.39-3,1.62-3.86,3.43c-2.21,4.67-4.65,9.23-6.97,13.85
			c-0.22,0.44-0.35,0.99-0.34,1.48c0.07,2.72,0.18,5.44,0.3,8.16c0.04,0.88-0.18,1.61-0.94,2.08c-1.3,0.81-2.87-0.12-2.97-1.78
			c-0.05-0.86-0.08-1.72-0.1-2.58c-0.02-0.83,0-1.67,0-2.51c-0.06-0.01-0.13-0.01-0.19-0.02c-0.18,1.13-0.36,2.26-0.53,3.39
			c-0.1,0.66-0.19,1.32-0.29,1.98c-0.22,1.4-1.13,2.17-2.33,1.97c-1.14-0.2-1.75-1.23-1.54-2.61c0.47-3.14,0.92-6.28,1.42-9.41
			c0.07-0.44-0.08-0.59-0.39-0.84c-1.41-1.16-2.84-1.36-4.42-0.35c-0.52,0.33-1.15,0.5-1.74,0.72c-0.94,0.35-1.73,0.04-2.03-0.78
			c-0.31-0.84,0.05-1.58,0.98-1.98c1-0.43,2.04-0.8,3.02-1.27c0.37-0.17,0.75-0.48,0.95-0.84c1.94-3.45,3.83-6.92,5.76-10.38
			c0.18-0.32,0.43-0.62,0.72-0.84c2.4-1.84,4.83-3.65,7.22-5.49c0.36-0.27,0.61-0.28,0.98-0.05c0.91,0.58,1.83,1.13,2.77,1.65
			c0.23,0.12,0.57,0.14,0.83,0.07c0.56-0.15,1.09-0.39,1.64-0.59c0.88-0.32,1.73-0.58,2.3-1.53c0.53-0.88,1.51-1.2,2.55-1.22
			c3.28-0.06,6.27-1,8.74-3.31c2.13-1.99,3.4-4.46,3.73-7.4c0.43-3.75,3.41-6.8,7.09-7.21c2.8-0.31,5.23,0.47,7.17,2.64
			c0.9,1.01,1.22,2.28,1.48,3.57c1.22,5.93,2.44,11.85,3.69,17.77c0.3,1.4,0.18,2.74-0.34,4.06c-1.26,3.18-2.5,6.37-3.74,9.55
			c-0.06,0.15-0.09,0.31-0.16,0.54c0.82,0,1.58,0,2.34,0c1.97,0,3.95,0.09,5.92-0.02c3-0.17,5,1.34,5.55,4.04
			C73.73,70.25,73.73,70.68,73.73,71.11z"/>
		<path class="st4" d="M50.02,7.72c4.76,0.09,8.56,4.04,8.51,8.84c-0.05,4.9-3.96,8.89-8.63,8.8c-4.78-0.09-8.62-4.12-8.5-8.93
			C41.51,11.52,45.36,7.63,50.02,7.72z"/>
		<path class="st4" d="M24.41,50.12c-1.27-2.02-2.42-4.02-3.73-5.89c-0.94-1.35-2.05-2.57-3.15-3.79c-0.8-0.88-1.09-1.57-0.75-2.26
			c0.37-0.74,1.36-1.17,2.37-0.88c0.72,0.21,1.38,0.66,2.09,0.94c0.26,0.1,0.68,0.17,0.87,0.03c1-0.71,2.13-1.03,3.3-1.27
			c0.97-0.2,1.83-0.59,2.58-1.3c0.77-0.72,1.61-1.37,2.48-1.95c1.78-1.19,3.08,0.06,3.53,1.47c0.6,1.9-0.11,3.5-1.22,4.98
			c-0.08,0.11-0.17,0.24-0.29,0.31c-1.19,0.76-1.1,1.75-0.51,2.85c0.14,0.27,0.22,0.57,0.34,0.9C29.69,46.2,27.08,48.14,24.41,50.12
			z"/>
	</g>
</g>
<g id="Layer_3" class="st2">
	<path class="st5" d="M22.97,67.1c0.22-0.77-0.01-1.1-0.68-1.41c-4.81-2.22-7.8-7.6-7.13-12.73c0.77-5.89,4.63-10.16,10.08-11.13
		c1.52-0.27,3.04-0.59,4.57-0.78c1.08-0.13,1.65-0.66,1.81-1.75c0.05-0.31,0.12-0.61,0.18-0.88c-0.9-0.58-1.8-1.08-2.62-1.69
		c-1.71-1.29-2.98-2.99-3.77-5.03c-0.24-0.63-0.54-0.81-1.15-0.76c-0.6,0.05-1.23,0.07-1.81-0.04c-1.66-0.32-2.79-1.33-3.22-3.06
		c-0.42-1.7,0.11-3.1,1.38-4.23c0.15-0.13,0.3-0.24,0.54-0.43c-0.64-1.35-1.25-2.72-1.94-4.04c-0.33-0.63-0.32-1.03,0.21-1.53
		c1-0.94,1.92-1.97,2.96-3.04c-1.86-1.46-3.66-2.86-5.62-4.4c1.65-1.03,3.15-2.07,4.74-2.94c4.72-2.57,9.78-3.84,15.11-3.83
		c2.37,0.01,4.76-0.1,7.11,0.18c6.1,0.74,10.53,6.88,9.77,13.25c-0.27,2.23-0.94,4.3-1.99,6.31c0.22,0.19,0.43,0.37,0.63,0.55
		c1.29,1.14,1.75,2.9,1.2,4.52c-0.55,1.6-2.02,2.85-3.66,2.71c-1.5-0.13-2.23,0.36-2.88,1.8c-1.2,2.66-3.34,4.44-5.97,5.63
		c0.08,0.36,0.14,0.69,0.22,1.02c0.2,0.84,0.69,1.26,1.54,1.25c4.74-0.06,9.16,1.18,13.26,3.66c0.41,0.25,0.92,0.41,1.4,0.45
		c0.88,0.08,1.57-0.55,1.6-1.47c0.04-1.55,0.04-3.1,0-4.65c-0.01-0.34-0.22-0.69-0.41-1c-1.43-2.4-2.17-5-2.22-7.82
		c-0.02-1.08,0.32-2.01,0.95-2.87c0.21-0.29,0.35-0.7,0.36-1.07c0.04-1.49,0-2.99,0.02-4.48c0.03-2.36,1.77-4.18,3.97-4.18
		c2.2,0,3.94,1.82,3.97,4.19c0.02,1.32,0,2.64,0,4.08c0.8,0,1.56,0,2.32,0c2.13,0.01,3.67,1.15,4.16,3.08
		c0.49,1.91-0.28,3.6-2.1,4.77c-0.22,0.14-0.39,0.58-0.39,0.88c-0.03,3.42-0.01,6.83-0.02,10.25c-0.01,6.51-4.62,11.32-10.86,11.34
		c-2.09,0-4.18,0-6.31,0c0,3.8,0,7.52,0,11.29c1.31,0.31,2.62,0.62,3.93,0.93c5.03,1.19,8.42,6.01,7.91,11.25
		c-0.52,5.44-4.83,9.59-10.07,9.6c-10.93,0.02-21.85,0.02-32.78,0c-5.17-0.01-9.38-3.99-10.05-9.43c-0.63-5.05,2.6-9.94,7.5-11.3
		C20.09,67.74,21.52,67.45,22.97,67.1z M47.57,86.1c2.35,0,4.64,0.09,6.93-0.02c3.51-0.16,6.32-2.97,6.9-6.75
		c0.52-3.35-1.38-6.98-4.52-8.16c-1.9-0.72-3.94-1.05-5.93-1.53c-0.17-0.04-0.38,0.04-0.57,0.08c-3.51,0.73-7.02,1.48-10.54,2.18
		c-0.96,0.19-1.98,0.44-2.91,0.27c-3.61-0.65-7.19-1.47-10.79-2.19c-0.79-0.16-1.64-0.29-2.43-0.18c-1.36,0.2-2.7,0.57-4.04,0.91
		c-3.72,0.95-6.06,4.16-5.89,8.05c0.17,3.7,2.86,7.01,6.56,7.23c4.83,0.29,9.69,0.07,14.58,0.07c0-2.4,0-4.76,0-7.17
		c-2.28-0.64-4.54-1.28-6.8-1.92c-2.24-0.64-4.49-1.29-6.76-1.94c0.25-0.93,0.47-1.75,0.71-2.64c5.22,1.48,10.36,2.94,15.5,4.4
		c0.02,0.39,0.04,0.69,0.07,1.04c1.96,0.02,3.85,0.21,5.66-0.86c1.45-0.86,3.05-1.46,4.59-2.17c1.68-0.77,3.36-1.54,5.08-2.33
		c0.37,0.88,0.71,1.68,1.06,2.51c-2.76,1.28-5.43,2.52-8.14,3.78C48.31,81.01,48.71,82.81,47.57,86.1z M37.62,52.72
		c3.26-2.42,6.48-4.81,9.76-7.25c0.72,1.5,1.42,2.89,2.06,4.31c0.23,0.51,0.45,0.78,1.05,0.56c0.51-0.19,1.07-0.22,1.72-0.35
		c0,1.05,0,2.04,0,3.04c2.34,0,4.57,0.04,6.81-0.01c3.51-0.07,6.7-2.53,7.38-6.12c0.47-2.46,0.34-5.05,0.49-7.64
		c-1.09,0-1.94,0-2.79,0c-0.87,0-1.74,0-2.64,0c0,1.42,0.02,2.71,0,4c-0.04,2.04-1.32,3.68-3.23,4.15
		c-1.43,0.35-2.72-0.08-3.95-0.82c-3.51-2.12-7.3-3.2-11.36-3.17c-0.31,0-0.76,0.21-0.9,0.47c-2.63,4.73-8.44,4.92-11.24,0.32
		c-0.24-0.39-0.45-0.47-0.86-0.39c-1.46,0.29-2.94,0.51-4.4,0.78c-7.09,1.34-10.19,10.04-5.63,15.84c2.16,2.75,5.03,3.83,8.39,3.59
		c0-1.87,0-3.66,0-5.49c-0.53,0-1,0.02-1.47,0c-1.63-0.09-3.25-1.23-3.53-2.87c-0.29-1.75-0.22-3.56-0.31-5.38
		c0.67,0,1.15-0.06,1.61,0.01c0.76,0.12,1.13-0.23,1.43-0.93c0.56-1.3,1.21-2.56,1.86-3.9C31.14,47.9,34.34,50.28,37.62,52.72z
		 M48.24,22.71c0.16,0.1,0.33,0.2,0.49,0.29c0.05-0.22,0.09-0.46,0.17-0.67c0.57-1.51,1.35-2.98,1.69-4.55
		c1.27-5.71-2.13-11.02-7.64-11.5c-4.41-0.39-8.87-0.4-13.24,0.7c-2.88,0.73-5.61,1.81-8.27,3.42c1.69,1.32,3.3,2.59,4.99,3.91
		c-1.51,1.55-2.94,3.02-4.41,4.52c0.57,1.19,1.12,2.38,1.71,3.54c0.09,0.17,0.37,0.24,0.82,0.51c-0.69-3.34,1.15-4.63,3.44-5.68
		c1.76-0.8,3.44-1.78,5.13-2.66c-0.27-0.9-0.53-1.72-0.8-2.6c0.96-0.19,1.76-0.34,2.54-0.49c1.29,3.29,2.78,4.91,4.79,5.29
		c-0.27-1.17-0.55-2.36-0.85-3.64c1.06,0,1.9,0,2.75,0c0.18,2.32,1.16,4.2,3.28,4.85C47.23,18.69,48.59,19.92,48.24,22.71z
		 M45.65,24.84c-0.01,0-0.02,0-0.03,0c0-1-0.01-2.01,0-3.01c0.01-0.51-0.18-0.76-0.67-0.91c-0.68-0.2-1.33-0.53-2-0.79
		c-0.25-0.09-0.53-0.18-0.79-0.17c-2.72,0.05-5.07-0.87-7.07-2.8c-0.16-0.16-0.56-0.23-0.76-0.13c-2.25,1.14-4.49,2.31-6.71,3.51
		c-0.26,0.14-0.52,0.56-0.52,0.86c-0.05,1.98-0.12,3.96-0.01,5.93c0.29,4.98,4,8.86,8.62,9.14c4.82,0.29,8.92-3.09,9.75-8.12
		C45.66,27.21,45.6,26.02,45.65,24.84z M49.5,53.41c-0.13,0-0.24-0.02-0.34,0c-3.13,0.65-6.26,1.33-9.4,1.94
		c-0.64,0.12-0.84,0.35-0.83,1.04c0.04,3.99,0.02,7.98,0.02,11.97c0,0.28,0,0.55,0,0.91c3.58-0.74,7.06-1.47,10.56-2.2
		C49.5,62.49,49.5,57.96,49.5,53.41z M37.66,86.11c1.86,0,3.62,0.03,5.39-0.01c1.33-0.03,2.4-1.16,2.51-2.51
		c0.11-1.36-0.76-2.78-2.07-2.88c-1.93-0.16-3.88-0.04-5.83-0.04C37.66,82.49,37.66,84.26,37.66,86.11z M60.43,33.19
		c0.36-1.17,0.79-2.24,1-3.34c0.18-0.93-0.48-1.62-1.29-1.62c-0.78,0-1.42,0.64-1.29,1.55c0.22,1.55,0.45,3.12,0.95,4.59
		c0.73,2.16,0.83,2.13,3,2.13c1.31,0,2.62,0,3.93,0c0-0.98,0-1.83,0-2.76c-1,0-1.96-0.03-2.92,0.02c-0.44,0.02-0.87,0.21-1.3,0.32
		c0.01,0.07,0.01,0.14,0.02,0.21C61.81,33.91,61.1,33.54,60.43,33.19z M38.04,39.18c-1.14,0-2.39,0-3.51,0
		c-0.43,1.03-0.77,2.03-1.27,2.93c-0.23,0.43-0.26,0.66,0,1.04c1.67,2.43,5.19,2.04,6.35-0.53C39.05,41.4,38.56,40.31,38.04,39.18z
		 M31.06,58.55c0,1.89,0,3.67,0,5.5c0.96,0,1.87,0.04,2.78-0.01c1.38-0.08,2.46-1.31,2.46-2.74c0-1.43-1.08-2.66-2.46-2.74
		C32.93,58.51,32.02,58.55,31.06,58.55z M36.25,69.26c0-1.1,0-2.09,0-3.03c-3.47,1.18-7.03,0.29-10.53,0.83
		C29.2,67.79,32.69,68.52,36.25,69.26z M25.77,53.35c-0.2,1.97,0.2,2.44,1.98,2.44c1.35,0,2.7,0,4.05,0c1.51,0,3.04-0.16,4.51,0.79
		c-0.02-0.45-0.03-0.75-0.05-1.05C32.72,54.8,29.27,54.08,25.77,53.35z M64.03,28.23c0,0.97,0,1.83,0,2.75
		c1.39,0,2.74,0.03,4.08-0.01c0.77-0.02,1.3-0.65,1.29-1.39c-0.02-0.74-0.55-1.32-1.34-1.34C66.72,28.21,65.37,28.23,64.03,28.23z
		 M60.15,25.4c0.95,0,1.79,0,2.64,0c0-1.41,0.03-2.76-0.01-4.1c-0.02-0.8-0.62-1.35-1.34-1.34c-0.68,0.02-1.26,0.55-1.28,1.31
		C60.12,22.63,60.15,24,60.15,25.4z M24.4,25.45c-0.97,0.1-1.99-0.31-2.47,0.76c-0.17,0.39-0.13,1.07,0.09,1.42
		c0.6,0.94,1.56,0.52,2.38,0.56C24.4,27.26,24.4,26.41,24.4,25.45z M48.29,25.53c0,0.92,0,1.79,0,2.65c1.83,0.13,2.6-0.28,2.57-1.36
		C50.84,25.76,50.06,25.36,48.29,25.53z M46.4,49.58c-0.93,0.7-1.77,1.33-2.6,1.95c0.03,0.06,0.05,0.11,0.08,0.17
		c1.05-0.22,2.1-0.44,3.22-0.67C46.84,50.5,46.64,50.09,46.4,49.58z M28.15,51.04c1.16,0.23,2.19,0.43,3.21,0.63
		c0.01-0.06,0.03-0.13,0.04-0.19c-0.83-0.61-1.65-1.22-2.55-1.89C28.61,50.07,28.41,50.49,28.15,51.04z"/>
</g>
</svg>
