<svg xmlns="http://www.w3.org/2000/svg" viewBox="0 0 46.83 46.82"><defs><style>.cls-1{fill:#662d91;}</style></defs><g id="Layer_2" data-name="Layer 2"><g id="Layer_2-2" data-name="Layer 2"><path class="cls-1" d="M22,0h2.92l1.67.2A22.62,22.62,0,0,1,39.59,6.53c6.09,6,8.39,13.32,6.69,21.71a22.66,22.66,0,0,1-12,15.92,20,20,0,0,1-4.32,1.73V28.58h5l.76-5.86H29.92c0-1.56-.06-3.07,0-4.57a1.84,1.84,0,0,1,1.78-1.88,21.57,21.57,0,0,1,2.55-.11c.51,0,1,0,1.54,0V10.89c-1.1-.07-2.17-.18-3.25-.17a16.37,16.37,0,0,0-3.36.23,6.6,6.6,0,0,0-5.33,6.45c-.08,1.59,0,3.17-.06,4.76v.58h-5v5.87h5V46.79l-.17,0h-.37a22.27,22.27,0,0,1-9.67-2.18A23.08,23.08,0,0,1,.37,27.49C.2,26.63.12,25.75,0,24.87V22c0-.3.08-.6.11-.9A23,23,0,0,1,6,7.76,22.9,22.9,0,0,1,19.42.35C20.26.21,21.11.12,22,0Z"/></g></g></svg>