<svg xmlns="http://www.w3.org/2000/svg" viewBox="0 0 69.85 97.94"><defs><style>.cls-1{fill:#333;}</style></defs><g id="Layer_2" data-name="Layer 2"><g id="Layer_2-2" data-name="Layer 2"><path class="cls-1" d="M13.6,73a1.15,1.15,0,0,0-.78-1.62A14.42,14.42,0,0,1,4.66,56.79C5.53,50,10,45.15,16.2,44c1.74-.31,3.48-.68,5.23-.89a2.11,2.11,0,0,0,2.08-2c0-.35.14-.7.21-1-1-.66-2.07-1.23-3-1.94a12.9,12.9,0,0,1-4.31-5.76,1.11,1.11,0,0,0-1.32-.87A7.61,7.61,0,0,1,13,31.52,4.43,4.43,0,0,1,9.3,28a4.63,4.63,0,0,1,1.58-4.85l.62-.48c-.74-1.55-1.44-3.12-2.23-4.63a1.24,1.24,0,0,1,.24-1.76c1.15-1.07,2.2-2.25,3.39-3.48l-6.45-5C8.34,6.6,10.06,5.4,11.89,4.41A35.41,35.41,0,0,1,29.2,0a66.85,66.85,0,0,1,8.14.21c7,.84,12.07,7.88,11.19,15.18a20.55,20.55,0,0,1-2.28,7.23l.72.62a4.82,4.82,0,0,1,1.37,5.18,4.29,4.29,0,0,1-4.19,3.1c-1.72-.14-2.56.42-3.3,2.07A12.93,12.93,0,0,1,34,40.05c.09.42.16.8.25,1.17A1.65,1.65,0,0,0,36,42.66a28.07,28.07,0,0,1,15.19,4.19,4,4,0,0,0,1.6.51,1.64,1.64,0,0,0,1.83-1.69c.05-1.77.05-3.55,0-5.33a2.6,2.6,0,0,0-.46-1.14,17.93,17.93,0,0,1-2.55-9A5.25,5.25,0,0,1,52.73,27a2.28,2.28,0,0,0,.41-1.22c0-1.71,0-3.42,0-5.13a4.56,4.56,0,1,1,9.1,0c0,1.51,0,3,0,4.68h2.66a4.61,4.61,0,0,1,4.77,3.53,4.82,4.82,0,0,1-2.41,5.47,1.38,1.38,0,0,0-.44,1c0,3.91,0,7.83,0,11.75,0,7.45-5.3,13-12.45,13H47.14V73L51.64,74a12,12,0,0,1,9.07,12.9,11.83,11.83,0,0,1-11.54,11q-18.78,0-37.56,0C5.68,97.91.86,93.35.09,87.12a12,12,0,0,1,8.59-13C10.3,73.72,11.94,73.38,13.6,73ZM41.79,94.75c2.69,0,5.32.1,7.94,0,4-.19,7.23-3.41,7.9-7.73a8.72,8.72,0,0,0-5.18-9.35,59.85,59.85,0,0,0-6.79-1.76A1.68,1.68,0,0,0,45,76c-4,.84-8,1.7-12.07,2.49a9.12,9.12,0,0,1-3.34.31c-4.14-.74-8.24-1.68-12.37-2.51a8.45,8.45,0,0,0-2.78-.2,43.38,43.38,0,0,0-4.62,1,8.85,8.85,0,0,0-6.75,9.23c.19,4.24,3.28,8,7.52,8.28,5.54.34,11.11.09,16.71.09V86.49l-7.79-2.2-7.74-2.22.81-3,17.76,5,.08,1.2c2.25,0,4.42.23,6.49-1a54.81,54.81,0,0,1,5.25-2.49L48,79.13,49.21,82l-9.33,4.33C42.63,88.92,43.1,91,41.79,94.75ZM30.39,56.5l11.19-8.3c.82,1.71,1.62,3.31,2.36,4.94.27.58.52.89,1.21.64a13.67,13.67,0,0,1,2-.4v3.48c2.68,0,5.24,0,7.8,0a8.74,8.74,0,0,0,8.46-7,67.77,67.77,0,0,0,.55-8.76H57.71c0,1.63,0,3.11,0,4.59A4.85,4.85,0,0,1,54,50.41a5.83,5.83,0,0,1-4.52-.94,24.46,24.46,0,0,0-13-3.63,1.38,1.38,0,0,0-1,.53c-3,5.43-9.67,5.64-12.87.37a.79.79,0,0,0-1-.44c-1.68.33-3.37.58-5,.9C8.41,48.73,4.85,58.7,10.07,65.35a10.6,10.6,0,0,0,9.62,4.12V63.18c-.61,0-1.15,0-1.68,0A4.28,4.28,0,0,1,14,59.88a56.66,56.66,0,0,1-.36-6.17,13.9,13.9,0,0,1,1.85,0c.87.14,1.29-.26,1.63-1.06.64-1.49,1.39-2.93,2.13-4.46ZM42.56,22.12l.56.34a6.53,6.53,0,0,1,.2-.76,41,41,0,0,0,1.94-5.21C46.71,10,42.82,3.86,36.5,3.31a45.11,45.11,0,0,0-15.18.8A34.1,34.1,0,0,0,11.85,8l5.72,4.49L12.51,17.7c.66,1.37,1.29,2.72,2,4.05.1.2.42.27.94.58-.79-3.83,1.31-5.3,3.94-6.5,2-.92,3.95-2,5.88-3.06l-.91-3,2.91-.56c1.47,3.77,3.18,5.62,5.49,6.06l-1-4.18h3.16c.21,2.66,1.33,4.82,3.76,5.56C41.41,17.51,43,18.93,42.56,22.12Zm-3,2.45h0c0-1.15,0-2.3,0-3.45a.93.93,0,0,0-.77-1c-.78-.23-1.52-.61-2.29-.9a2.61,2.61,0,0,0-.91-.2,11,11,0,0,1-8.1-3.2.94.94,0,0,0-.87-.15q-3.87,2-7.69,4a1.38,1.38,0,0,0-.6,1c-.05,2.27-.13,4.54,0,6.8a10.82,10.82,0,0,0,9.87,10.47,10.68,10.68,0,0,0,11.17-9.3A35.71,35.71,0,0,0,39.6,24.57ZM44,57.3a1.63,1.63,0,0,0-.39,0c-3.6.74-7.18,1.52-10.78,2.22-.73.15-1,.4-1,1.19,0,4.57,0,9.14,0,13.72v1L44,73ZM30.43,94.77c2.14,0,4.16,0,6.18,0a3.08,3.08,0,0,0,2.88-2.88,3,3,0,0,0-2.38-3.3c-2.21-.18-4.45,0-6.68,0ZM56.52,34.13a35,35,0,0,0,1.15-3.83,1.5,1.5,0,0,0-1.48-1.85,1.48,1.48,0,0,0-1.48,1.77,29.93,29.93,0,0,0,1.08,5.26c.84,2.48,1,2.44,3.44,2.44h4.5V34.76c-1.14,0-2.24,0-3.34,0a8.11,8.11,0,0,0-1.49.37l0,.24ZM30.87,41h-4a34.64,34.64,0,0,1-1.45,3.36.93.93,0,0,0,0,1.19,4.16,4.16,0,0,0,7.27-.6Zm-8,22.2v6.3c1.1,0,2.15.05,3.18,0a3.16,3.16,0,0,0,0-6.28C25,63.15,24,63.19,22.87,63.19Zm5.94,12.27V72c-4,1.35-8,.34-12.06,1Zm-12-18.23c-.23,2.26.23,2.8,2.26,2.8h4.64c1.73,0,3.49-.19,5.17.9l-.06-1.2ZM60.66,28.44v3.15c1.59,0,3.13,0,4.67,0a1.57,1.57,0,0,0-.06-3.13C63.73,28.42,62.19,28.44,60.66,28.44ZM56.2,25.2h3c0-1.62,0-3.16,0-4.7a1.5,1.5,0,1,0-3,0C56.17,22,56.2,23.6,56.2,25.2Zm-41,.06c-1.11.11-2.28-.36-2.83.87a2.06,2.06,0,0,0,.1,1.63c.69,1.08,1.79.59,2.73.65Zm27.37.09v3c2.1.16,3-.32,3-1.55S44.65,25.15,42.61,25.35ZM40.45,52.91l-3,2.24.09.19,3.69-.77ZM19.53,54.58l3.68.72.05-.22-2.93-2.16Z"/></g></g></svg>