<svg xmlns="http://www.w3.org/2000/svg" viewBox="0 0 275.97 317.97"><defs><style>.cls-1{fill:#e6e6e6;}.cls-2{fill:#333;stroke:#00eea9;stroke-miterlimit:10;stroke-width:1.44px;}</style></defs><g id="Layer_2" data-name="Layer 2"><g id="Layer_2-2" data-name="Layer 2"><rect class="cls-1" width="275.97" height="317.97"/><path class="cls-2" d="M115.73,78c.26-.88,0-1.26-.78-1.61a14.43,14.43,0,0,1-8.16-14.58c.87-6.76,5.3-11.65,11.54-12.75,1.74-.31,3.48-.68,5.24-.9a2.11,2.11,0,0,0,2.07-2c0-.35.14-.7.21-1-1-.66-2.07-1.23-3-1.94a12.9,12.9,0,0,1-4.31-5.76,1.12,1.12,0,0,0-1.32-.87,7.61,7.61,0,0,1-2.08,0,4.44,4.44,0,0,1-3.7-3.51A4.64,4.64,0,0,1,113,28.22c.17-.15.35-.28.62-.49-.74-1.54-1.43-3.11-2.23-4.63a1.23,1.23,0,0,1,.24-1.75c1.15-1.08,2.2-2.25,3.39-3.49l-6.45-5c1.9-1.18,3.61-2.37,5.44-3.37a35.63,35.63,0,0,1,17.31-4.39,71.14,71.14,0,0,1,8.14.21c7,.85,12.07,7.89,11.19,15.18a20.49,20.49,0,0,1-2.28,7.23l.72.63a4.82,4.82,0,0,1,1.37,5.18,4.3,4.3,0,0,1-4.19,3.1c-1.72-.14-2.56.41-3.3,2.06a13,13,0,0,1-6.84,6.45c.09.41.16.79.25,1.17a1.64,1.64,0,0,0,1.77,1.43,28.16,28.16,0,0,1,15.19,4.19,3.87,3.87,0,0,0,1.61.52,1.66,1.66,0,0,0,1.83-1.69c0-1.78,0-3.55,0-5.33a2.55,2.55,0,0,0-.46-1.14,18,18,0,0,1-2.55-9A5.22,5.22,0,0,1,154.86,32a2.31,2.31,0,0,0,.41-1.22c0-1.71,0-3.42,0-5.13a4.56,4.56,0,1,1,9.1,0c0,1.51,0,3,0,4.68h2.66a4.59,4.59,0,0,1,4.77,3.53,4.8,4.8,0,0,1-2.41,5.46,1.42,1.42,0,0,0-.44,1c0,3.91,0,7.83,0,11.74,0,7.46-5.3,13-12.45,13-2.39,0-4.79,0-7.23,0V78l4.5,1.07A12,12,0,0,1,162.84,92a11.83,11.83,0,0,1-11.54,11q-18.78,0-37.56,0c-5.93,0-10.75-4.58-11.52-10.8a12,12,0,0,1,8.59-13C112.43,78.77,114.07,78.43,115.73,78ZM143.92,99.8c2.69,0,5.32.1,7.94,0,4-.19,7.24-3.41,7.9-7.73a8.73,8.73,0,0,0-5.18-9.36,57.78,57.78,0,0,0-6.79-1.75,1.51,1.51,0,0,0-.65.09c-4,.83-8,1.69-12.07,2.49a9.34,9.34,0,0,1-3.34.31c-4.14-.75-8.24-1.69-12.37-2.51a8.46,8.46,0,0,0-2.78-.21,46,46,0,0,0-4.62,1,8.83,8.83,0,0,0-6.75,9.22c.19,4.25,3.28,8,7.52,8.29,5.54.33,11.11.08,16.71.08V91.53l-7.79-2.2-7.74-2.22.81-3,17.76,5,.08,1.2c2.25,0,4.42.24,6.49-1a54.73,54.73,0,0,1,5.25-2.48l5.82-2.67,1.22,2.87L142,91.38C144.76,94,145.23,96,143.92,99.8Zm-11.4-38.25,11.19-8.3c.82,1.71,1.62,3.31,2.36,4.93.27.59.52.89,1.21.64a13.73,13.73,0,0,1,2-.39v3.48c2.68,0,5.24,0,7.8,0a8.76,8.76,0,0,0,8.46-7,69.57,69.57,0,0,0,.56-8.76h-6.23c0,1.63,0,3.1,0,4.58a4.85,4.85,0,0,1-3.7,4.76,5.83,5.83,0,0,1-4.52-.94,24.53,24.53,0,0,0-13-3.64,1.36,1.36,0,0,0-1,.54c-3,5.42-9.66,5.63-12.87.37a.79.79,0,0,0-1-.45c-1.68.33-3.37.58-5,.9-8.12,1.54-11.68,11.5-6.46,18.15a10.56,10.56,0,0,0,9.62,4.12V68.22c-.61,0-1.15,0-1.68,0a4.29,4.29,0,0,1-4-3.29,56.85,56.85,0,0,1-.36-6.18,13.67,13.67,0,0,1,1.85,0c.87.14,1.29-.26,1.63-1.06.64-1.49,1.39-2.93,2.13-4.47Zm12.17-34.38.57.34a6.66,6.66,0,0,1,.19-.77,39.87,39.87,0,0,0,1.94-5.21C148.85,15,145,8.91,138.63,8.35a45.39,45.39,0,0,0-15.18.81A33.8,33.8,0,0,0,114,13.08l5.72,4.48-5.06,5.19c.66,1.36,1.29,2.72,2,4.05.1.19.42.27.94.58-.79-3.83,1.31-5.31,3.94-6.51,2-.91,4-2,5.88-3.05l-.91-3,2.91-.57c1.47,3.78,3.18,5.63,5.49,6.06l-1-4.17H137c.21,2.66,1.33,4.82,3.76,5.56C143.54,22.56,145.09,24,144.69,27.17Zm-3,2.44h0c0-1.15,0-2.3,0-3.45a.93.93,0,0,0-.77-1c-.78-.24-1.52-.61-2.29-.9a2.4,2.4,0,0,0-.9-.2,11,11,0,0,1-8.11-3.21.94.94,0,0,0-.87-.15q-3.87,2-7.69,4a1.38,1.38,0,0,0-.6,1c0,2.26-.13,4.54,0,6.8a10.82,10.82,0,0,0,9.87,10.47,10.68,10.68,0,0,0,11.17-9.3A36,36,0,0,0,141.73,29.61Zm4.41,32.74a2.52,2.52,0,0,0-.39,0c-3.59.75-7.18,1.52-10.78,2.23-.73.14-1,.4-.95,1.19,0,4.57,0,9.14,0,13.71v1L146.14,78ZM132.56,99.81c2.14,0,4.16,0,6.18,0a3.08,3.08,0,0,0,2.88-2.87,3,3,0,0,0-2.38-3.31c-2.21-.18-4.45,0-6.68,0Zm26.09-60.63a35.69,35.69,0,0,0,1.15-3.83,1.5,1.5,0,0,0-1.48-1.86,1.49,1.49,0,0,0-1.48,1.77,28.89,28.89,0,0,0,1.09,5.26c.83,2.48.94,2.44,3.43,2.44h4.5V39.8c-1.14,0-2.24,0-3.34,0a8.07,8.07,0,0,0-1.49.36l0,.24ZM133,46h-4a34.84,34.84,0,0,1-1.45,3.37.93.93,0,0,0,0,1.19A4.16,4.16,0,0,0,134.8,50Zm-8,22.21v6.3c1.1,0,2.15,0,3.18,0a3.16,3.16,0,0,0,0-6.28C127.15,68.19,126.1,68.24,125,68.24ZM131,80.5V77c-4,1.35-8.06.33-12.07,1Zm-12-18.22c-.23,2.26.23,2.79,2.26,2.79h4.65c1.72,0,3.48-.18,5.16.91l-.06-1.2Zm43.85-28.79v3.15c1.59,0,3.14,0,4.68,0A1.5,1.5,0,0,0,168.94,35a1.52,1.52,0,0,0-1.54-1.53C165.86,33.46,164.32,33.49,162.79,33.49Zm-4.46-3.25h3c0-1.62,0-3.16,0-4.69a1.5,1.5,0,1,0-3,0C158.3,27.08,158.33,28.64,158.33,30.24Zm-41,.06c-1.12.12-2.28-.35-2.84.88a2,2,0,0,0,.11,1.62c.68,1.09,1.78.59,2.73.65Zm27.36.09v3c2.1.15,3-.32,2.95-1.56S146.78,30.2,144.74,30.39ZM142.58,58l-3,2.24.08.19,3.69-.77Zm-20.92,1.67,3.68.72,0-.22L122.46,58Z"/></g></g></svg>