<svg xmlns="http://www.w3.org/2000/svg" viewBox="0 0 285 319"><defs><style>.cls-1{fill:#e6e6e6;}.cls-2{fill:#00cd9d;}.cls-3{fill:#fff;}</style></defs><g id="Layer_2" data-name="Layer 2"><g id="Layer_2-2" data-name="Layer 2"><rect class="cls-1" width="285" height="319"/><path class="cls-2" d="M139.14,103.81c-1.37-.16-2.75-.28-4.12-.48-4.4-.63-8.55-1.9-12.09-4.72a17.12,17.12,0,0,1-6.41-12.06,28.79,28.79,0,0,1,.3-8.08,5.34,5.34,0,0,0,0-.6c-.5-.11-1-.2-1.48-.32-4.64-1.12-9.39-6.08-6.78-13.27a32.26,32.26,0,0,1,9.25-13,13.17,13.17,0,0,1,5.81-3.09,9.42,9.42,0,0,1,6.92.83,1,1,0,0,0,.84,0c5.86-4,16.18-4,22.06-.14a.89.89,0,0,0,.76.06,9.75,9.75,0,0,1,9.52-.1,13.53,13.53,0,0,1,3,1.86,32.92,32.92,0,0,1,9.36,12.45,11.38,11.38,0,0,1,1,6A9.83,9.83,0,0,1,169,77.45l-.7.14c.15,2,.37,4,.42,5.9.11,4.81-1,9.24-4.25,13a19.81,19.81,0,0,1-11,6.21c-2.23.5-4.53.68-6.8,1l-.78.14Zm5.8-4.87a29.17,29.17,0,0,0,11.21-2.25,12.25,12.25,0,0,0,7.42-9.33A21.82,21.82,0,0,0,163,76.8c-1.27-4-2.73-8-4.18-12a49,49,0,0,0-2.3-5.37c-2.51-5-6.35-8.19-12.13-8.62-5.22-.39-10,.68-13.35,5a22.25,22.25,0,0,0-3.18,5.34c-1.93,4.79-3.65,9.65-5.36,14.52a23.07,23.07,0,0,0-1.11,10.53,12.27,12.27,0,0,0,6,9.6,20.94,20.94,0,0,0,7.93,2.63c1.57.23,3.15.34,4.72.51a2.83,2.83,0,0,0,.08-.38c0-3.22,0-6.43,0-9.65a1.08,1.08,0,0,0-.54-.73,9.93,9.93,0,0,1-4.28-4.53,5.54,5.54,0,0,1,3.9-8,15.21,15.21,0,0,1,6.68,0,5.55,5.55,0,0,1,3.94,8.07,9.53,9.53,0,0,1-4.31,4.49.9.9,0,0,0-.56.93c0,2.59,0,5.19,0,7.79Zm12.78-46.33c3.39,4.13,5.05,9,6.72,13.79.68,2,1.41,3.92,2.15,5.86.08.22.35.53.53.53,3.33,0,5.7-2.77,5.15-5.57a12.24,12.24,0,0,0-.69-2.38A28.11,28.11,0,0,0,164,54.64,12.13,12.13,0,0,0,161.28,53,5.17,5.17,0,0,0,157.72,52.61Zm-30.6.31a1.12,1.12,0,0,0-.21-.14,2.57,2.57,0,0,0-.4-.07,7,7,0,0,0-4.88,1.7,27,27,0,0,0-8.36,11.16,7.65,7.65,0,0,0-.49,3.44c.24,2.27,2.7,4.13,5.07,4,.19,0,.47-.28.55-.5.69-1.79,1.35-3.6,2-5.41C122.12,62.18,123.73,57.15,127.12,52.92Zm15.43,27.2a20.84,20.84,0,0,0-2.33.28,1.1,1.1,0,0,0-.69.72c-.1,1.07,2,3.14,3.09,3.06a.87.87,0,0,0,.31-.07,4.68,4.68,0,0,0,2.54-2.52c.3-.69.08-1.09-.66-1.22S143.33,80.2,142.55,80.12Z"/><path class="cls-2" d="M149.57,21.52c.53.17,1.07.31,1.58.51a7.25,7.25,0,0,1,2.74,11.58c-2.08,2.27-4.27,4.43-6.53,6.53a7.1,7.1,0,0,1-9.7-.07c-2.16-2-4.26-4.14-6.3-6.29a6.87,6.87,0,0,1-1.65-7.21,7,7,0,0,1,5.54-4.91c.12,0,.24-.1.36-.14h2.09a8.68,8.68,0,0,1,3.63,1.74l1.22,1.12c2.17-1.95,2.17-1.95,4.94-2.86Zm-7,15.85a7.9,7.9,0,0,0,1.79-1c2-1.89,3.89-3.82,5.79-5.77a2.45,2.45,0,0,0,.08-3.58,2.47,2.47,0,0,0-3.58.14c-.75.73-1.47,1.48-2.22,2.21a2.41,2.41,0,0,1-3.68,0c-.77-.74-1.51-1.52-2.27-2.26A2.46,2.46,0,1,0,135,30.6c1.92,1.94,3.83,3.89,5.8,5.77A8.39,8.39,0,0,0,142.53,37.37Z"/><path class="cls-3" d="M144.94,98.94V97c0-2.6,0-5.2,0-7.79a.9.9,0,0,1,.56-.93,9.53,9.53,0,0,0,4.31-4.49,5.55,5.55,0,0,0-3.94-8.07,15.21,15.21,0,0,0-6.68,0,5.54,5.54,0,0,0-3.9,8,9.93,9.93,0,0,0,4.28,4.53,1.08,1.08,0,0,1,.54.73c0,3.22,0,6.43,0,9.65A2.83,2.83,0,0,1,140,99c-1.57-.17-3.15-.28-4.72-.51a20.94,20.94,0,0,1-7.93-2.63,12.27,12.27,0,0,1-6-9.6,23.07,23.07,0,0,1,1.11-10.53c1.71-4.87,3.43-9.73,5.36-14.52A22.25,22.25,0,0,1,131,55.87c3.4-4.34,8.13-5.41,13.35-5,5.78.43,9.62,3.61,12.13,8.62a49,49,0,0,1,2.3,5.37c1.45,4,2.91,7.93,4.18,12a21.82,21.82,0,0,1,.62,10.56,12.25,12.25,0,0,1-7.42,9.33A29.17,29.17,0,0,1,144.94,98.94Zm6.4-32.07c0-.65,0-1.29,0-1.93a2.36,2.36,0,0,0-2.28-2.33,2.34,2.34,0,0,0-2.49,2.19c-.07,1.34-.07,2.68,0,4a2.39,2.39,0,0,0,4.78-.1C151.36,68.1,151.34,67.48,151.34,66.87Zm-17.65-.13c0,.64,0,1.28,0,1.92a2.39,2.39,0,0,0,4.78.12c.07-1.31.06-2.62,0-3.93A2.35,2.35,0,0,0,136,62.61,2.38,2.38,0,0,0,133.69,65C133.67,65.56,133.69,66.15,133.69,66.74Z"/><path class="cls-3" d="M157.72,52.61a5.17,5.17,0,0,1,3.56.36A12.13,12.13,0,0,1,164,54.64a28.11,28.11,0,0,1,7.59,10.2,12.24,12.24,0,0,1,.69,2.38c.55,2.8-1.82,5.56-5.15,5.57-.18,0-.45-.31-.53-.53-.74-1.94-1.47-3.9-2.15-5.86C162.77,61.57,161.11,56.74,157.72,52.61Z"/><path class="cls-3" d="M127.12,52.92c-3.39,4.23-5,9.26-6.73,14.23-.64,1.81-1.3,3.62-2,5.41-.08.22-.36.5-.55.5-2.37.08-4.83-1.78-5.07-4a7.65,7.65,0,0,1,.49-3.44,27,27,0,0,1,8.36-11.16,7,7,0,0,1,4.88-1.7,2.57,2.57,0,0,1,.4.07A1.12,1.12,0,0,1,127.12,52.92Z"/><path class="cls-3" d="M142.55,80.12c.78.08,1.53.12,2.26.25s1,.53.66,1.22a4.68,4.68,0,0,1-2.54,2.52.87.87,0,0,1-.31.07c-1.05.08-3.19-2-3.09-3.06a1.1,1.1,0,0,1,.69-.72A20.84,20.84,0,0,1,142.55,80.12Z"/><path class="cls-2" d="M151.34,66.87c0,.61,0,1.23,0,1.84a2.39,2.39,0,0,1-4.78.1c-.06-1.33-.06-2.67,0-4a2.34,2.34,0,0,1,2.49-2.19,2.36,2.36,0,0,1,2.28,2.33C151.36,65.58,151.34,66.22,151.34,66.87Z"/><path class="cls-2" d="M133.69,66.74c0-.59,0-1.18,0-1.76A2.38,2.38,0,0,1,136,62.61a2.35,2.35,0,0,1,2.45,2.24c.06,1.31.07,2.62,0,3.93a2.39,2.39,0,0,1-4.78-.12C133.67,68,133.69,67.38,133.69,66.74Z"/></g></g></svg>