<svg xmlns="http://www.w3.org/2000/svg" xmlns:xlink="http://www.w3.org/1999/xlink" viewBox="0 0 1010 377.99"><defs><style>.cls-1{fill:none;}.cls-13,.cls-2,.cls-3{fill:#fff;}.cls-2{opacity:0.46;}.cls-4{fill:#f7931e;}.cls-5{fill:#00a99d;}.cls-6{fill:#662d91;opacity:0.76;}.cls-7{clip-path:url(#clip-path);}.cls-8{clip-path:url(#clip-path-2);}.cls-9{fill:#22b573;}.cls-10{fill:#f2f2f2;}.cls-11{clip-path:url(#clip-path-3);}.cls-12{clip-path:url(#clip-path-4);}.cls-13{opacity:0.54;}</style><clipPath id="clip-path" transform="translate(0 26.74)"><ellipse class="cls-1" cx="615.65" cy="190.59" rx="83.08" ry="80.59"/></clipPath><clipPath id="clip-path-2" transform="translate(0 26.74)"><ellipse class="cls-1" cx="751.46" cy="195.92" rx="77.84" ry="79"/></clipPath><clipPath id="clip-path-3" transform="translate(0 26.74)"><ellipse class="cls-1" cx="439.98" cy="110.1" rx="99.01" ry="90.88"/></clipPath><clipPath id="clip-path-4" transform="translate(0 26.74)"><ellipse class="cls-1" cx="890.93" cy="127" rx="98.54" ry="100"/></clipPath></defs><g id="Layer_2" data-name="Layer 2"><g id="Layer_2-2" data-name="Layer 2"><rect class="cls-2" x="11.39" y="282.74" width="521.64" height="41"/><rect class="cls-3" y="26.74" width="1010" height="298.5"/><ellipse class="cls-4" cx="475.53" cy="234.74" rx="76.58" ry="69"/><ellipse class="cls-5" cx="532.68" cy="114.24" rx="83.98" ry="79.5"/><ellipse class="cls-5" cx="827.05" cy="225.37" rx="78.34" ry="79.5"/><ellipse class="cls-4" cx="621.01" cy="170.74" rx="68.62" ry="72"/><ellipse class="cls-6" cx="731.56" cy="156.24" rx="78.34" ry="79.5"/><ellipse class="cls-5" cx="240.82" cy="198.37" rx="78.34" ry="79.5"/><ellipse class="cls-3" cx="617.13" cy="226.75" rx="90.28" ry="88.01"/><g class="cls-7"><image width="2048" height="1536" transform="translate(529.53 139.88) scale(0.09 0.1)" xlink:href="../img/PB2.jpg"/></g><ellipse class="cls-3" cx="752.91" cy="223.66" rx="84.46" ry="85"/><g class="cls-8"><image width="1536" height="2048" transform="translate(665.74 117.66) scale(0.13 0.13)" xlink:href="../img/PB3.jpg"/></g><ellipse class="cls-9" cx="919.27" cy="226.24" rx="78.34" ry="79.5"/><ellipse class="cls-9" cx="357.87" cy="188.24" rx="100.01" ry="101.5"/><ellipse class="cls-10" cx="440.75" cy="135.74" rx="106.43" ry="98"/><g class="cls-11"><image width="1200" height="1600" transform="translate(340.39) scale(0.17 0.16)" xlink:href="../img/Baloo%202.jpeg"/></g><rect x="14.01" y="229.74" width="517.32" height="61"/><path class="cls-10" d="M998.61,128.69a109.13,109.13,0,0,1-37.24,82.39,105.78,105.78,0,0,1-69.85,26.3c-59.15,0-107.1-48.66-107.1-108.69S832.37,20,891.52,20,998.61,68.66,998.61,128.69Z" transform="translate(0 26.74)"/><g class="cls-12"><image width="1536" height="2048" transform="translate(740.26 29.22) scale(0.17 0.14)" xlink:href="../img/smile3.jpg"/></g><rect class="cls-13" x="14" y="290.74" width="515" height="35"/></g></g></svg>