<svg xmlns="http://www.w3.org/2000/svg" viewBox="0 0 918.56 102.84"><defs><style>.cls-1{fill:#333;}.cls-2{fill:#fff;}.cls-3{fill:#42210b;}.cls-4{fill:#662d91;}</style></defs><g id="Layer_2" data-name="Layer 2"><g id="Layer_2-2" data-name="Layer 2"><path class="cls-1" d="M12,102.4H8.27V98.62c-.95,1-1.56,2.2-2.39,2.4-.61.14-1.53-1-2.39-1.65l-.36,2.95L0,102.5V88.23c5.49-1.34,4.29,3.42,6,5.83a45.5,45.5,0,0,1,2.11-4.67c.39-.67,1.51-1.53,2-1.38a3,3,0,0,1,1.81,2C12.07,94,12,98.09,12,102.4Z"/><path class="cls-1" d="M118.3,88.24c4.69-1.75,4.62,2.26,6.27,5.07L125,88h2.91c0,4.51,0,9-.06,13.43,0,.34-.94,1-1.35.92-.88-.13-2.13-.4-2.47-1-1-1.83-1.59-3.86-2.84-5.73v6.76h-3.8C117.67,97.5,118,92.77,118.3,88.24Z"/><path class="cls-1" d="M67.78,98.36c1.35,0,2.71,0,4.06,0s1.74.43,1.67,1.67.19,2.24-1.56,2.26c-2.35,0-4.71.22-7.06.4-1.3.1-1.72-.54-1.66-1.7.21-3.81.38-7.63.71-11.44a2.15,2.15,0,0,1,1.47-1.44c2.7-.15,5.42-.07,8.26-.07v2.89l-5.85,1.25v.68c.91.07,1.81.19,2.72.2s1.9,0,2,1.4-.35,2.08-1.7,2.29c-1.07.17-2.14.39-3.21.59Z"/><path class="cls-1" d="M42.2,88.39c1.65-.19,3.25-.42,4.85-.53s3.25,0,4.16,1.78,1,3.79-.23,5.19c-1.44,1.57-.86,2.65-.08,4a2.26,2.26,0,0,1-1.79,3.58c-.42.06-1.09-.53-1.39-1-.72-1.06-1.28-2.21-1.9-3.32l-.62.16c-.06.67-.15,1.35-.19,2-.13,2.1-1,2.78-3,2.21-.43-.12-1.05-.76-1-1.11C41.34,97.14,41.78,92.84,42.2,88.39ZM48,91.14c-2.9,0-3.06.17-2.89,3.22C46.84,94,48.17,93.39,48,91.14Z"/><path class="cls-1" d="M99.47,97.37c1.7,3.48,1.7,3.48-1.28,5.12-.71-1.25-1.38-2.53-2.15-3.75-.22-.35-.74-.52-1.13-.78a4.06,4.06,0,0,0-.63,1.22c-.09.94,0,1.9,0,3H90.71c.24-4.43.46-8.8.75-13.17a1.23,1.23,0,0,1,.83-.84,41.84,41.84,0,0,1,6.79-.31c1.61.14,2.31,1.74,2.1,3.19A51.71,51.71,0,0,1,99.47,97.37Zm-4.61-3.78.61.61,2.22-2.33C95.56,91.2,94.73,91.87,94.86,93.59Z"/><path class="cls-1" d="M53.19,88.06c3.83-.32,4.11,0,3.74,3.26a40.55,40.55,0,0,0-.31,5.28c0,.63.61,1.24.94,1.86.45-.59,1.23-1.14,1.31-1.78a67.84,67.84,0,0,0,.39-6.84c0-1.69.92-2.3,2.39-1.89.63.18,1.54,1,1.54,1.48a63.28,63.28,0,0,1-.42,8.6,5.82,5.82,0,0,1-8.14,4.31c-1.86-.81-2.31-2.49-2.23-4.21C52.53,94.79,52.91,91.46,53.19,88.06Z"/><path class="cls-1" d="M114.87,93.33c1.12,2.3.28,3-1.75,3.25-2.56.3-2.54.4-2.87,1.94h6V102l-9.45.61c0-3,0-5.79,0-8.62,0-1,.32-2.07.23-3.08-.23-2.4.93-3.07,3.11-2.94s4.26,0,6.56,0v2.92c-2,.39-4,.76-6,1.2a5.09,5.09,0,0,0,0,1.27Z"/><path class="cls-1" d="M128.73,102.27c.22-4.24.41-8.35.65-12.47a1.83,1.83,0,0,1,.45-1.18c2.69-2.39,8.23-.63,9,2.85C140.42,98.12,135.83,103.2,128.73,102.27Zm3.55-3.73c2.59-.73,4.24-4.8,2.85-6.64a1.93,1.93,0,0,0-1.49-.52c-.38,0-1,.5-1,.82C132.42,94.28,132.37,96.38,132.28,98.54Z"/><path class="cls-1" d="M84.14,102.37l-3.85.32c.09-1.76.16-3.26.25-4.77.15-2.72.37-5.44.45-8.17,0-1.4.59-2,2-2,1.92,0,3.84-.23,5.75-.16.62,0,1.72.63,1.73,1,0,1,.42,2.52-1.29,2.84-1.08.2-2.21.21-3.26.49-.5.14-.88.71-1.32,1.09a9.23,9.23,0,0,0,1.64.87c.39.12,1-.22,1.3-.06.66.31,1.77.86,1.74,1.24-.06.84-.77,2.37-1.12,2.34C84.52,97.15,83.3,98.84,84.14,102.37Z"/><path class="cls-1" d="M36.64,102.37H33.31V92.24a6.43,6.43,0,0,0-1.1-.22c-1.26.06-2.58.45-2.44-1.68.11-1.7.38-2.83,2.5-2.66a37.7,37.7,0,0,0,5.09-.16c3.16-.17,3.46.14,3,3.48-3-.15-2.84,1.89-2.89,4.08C37.39,97.42,37,99.74,36.64,102.37Z"/><path class="cls-1" d="M12.76,88.72l2.77-1c.75,1.75,1.45,3.4,2.4,5.64.61-1.63,1.06-2.79,1.46-4A2.51,2.51,0,0,1,23,88a1.45,1.45,0,0,1,.35,1.27,27.19,27.19,0,0,1-1,2.68Q20.49,97,18.61,102l.54.35H15.67C17,97.32,13.61,93.47,12.76,88.72Z"/><path class="cls-1" d="M106.49,88c-.16,3.12-.32,6.26-.48,9.39a16.85,16.85,0,0,0-.09,1.73c.17,3.59.17,3.59-3.49,3.31,0-3.11,0-6.24,0-9.36,0-.87.19-1.75.24-2.62C102.83,87.57,103.39,87.19,106.49,88Z"/><path class="cls-2" d="M48,91.14c.16,2.25-1.17,2.88-2.89,3.22C45,91.31,45.11,91.12,48,91.14Z"/><path class="cls-3" d="M83.38,78.85l.05-.24,1.36-.1.48-.09a12.52,12.52,0,0,0,10-9.26,12.11,12.11,0,0,0-3.42-13q-7.66-7.32-15.39-14.56a18.29,18.29,0,0,0-25.14,0C46.11,46.39,41,51.26,35.88,56.12A12.26,12.26,0,0,0,32.24,68.5a12.68,12.68,0,0,0,13.65,10,46.35,46.35,0,0,0,7-1.3c3.34-.82,6.63-1.83,10.12-1.94,4.36-.15,8.51.88,12.68,1.92C78.22,77.86,80.81,78.31,83.38,78.85ZM61,14.94c-.15-3.94-.91-7.8-3.45-11.08a8.91,8.91,0,0,0-7-3.83c-3.94-.08-6.6,2-8.54,5.22a18.19,18.19,0,0,0-2.42,8.35,17.58,17.58,0,0,0,3.74,12.78c3.92,4.81,10,4.78,13.9,0C59.86,23.08,60.87,19.2,61,14.94Zm27.31,0c0-.66-.1-1.57-.22-2.47A16.42,16.42,0,0,0,84.5,3.49c-2.38-2.77-5.36-4.1-9-3.22a10,10,0,0,0-6.29,5.05A18.1,18.1,0,0,0,66.87,13c-.44,4.83.47,9.34,3.55,13.22,4,5,10.15,5,14.15,0C87.16,23,88.13,19.2,88.27,14.89ZM37.14,36c-.08-.91-.12-1.82-.24-2.72-.61-4.28-2.2-8.09-5.56-11-4.18-3.56-9.5-2.25-11.66,2.81a16.25,16.25,0,0,0-.75,9.48,17.49,17.49,0,0,0,4.88,9.87c4.17,4,9.8,2.86,12.13-2.41A15.81,15.81,0,0,0,37.14,36Zm53.45-.17a13.88,13.88,0,0,0,1.52,7,7,7,0,0,0,10.56,2.61,11.07,11.07,0,0,0,2.67-2.53,19.29,19.29,0,0,0,3.75-13.11,12,12,0,0,0-2.29-6.64,6.55,6.55,0,0,0-8.68-2A12.14,12.14,0,0,0,95,23.69,18.25,18.25,0,0,0,90.59,35.79Z"/><path class="cls-4" d="M81.32,75.77c-2.57-.53-5.16-1-7.7-1.62-4.17-1.05-8.32-2.08-12.68-1.93-3.49.11-6.78,1.12-10.13,1.94a45,45,0,0,1-7,1.3,12.68,12.68,0,0,1-13.65-10,12.21,12.21,0,0,1,3.64-12.37C39,48.18,44.06,43.31,49.22,38.5a18.3,18.3,0,0,1,25.15,0c5.16,4.82,10.28,9.69,15.39,14.56a12.11,12.11,0,0,1,3.42,13,12.55,12.55,0,0,1-10,9.26,2.7,2.7,0,0,1-.48.09l-1.37.1Z"/><path class="cls-4" d="M61,14.94c-.09,4.26-1.1,8.14-3.8,11.42-3.93,4.8-10,4.83-13.9,0A17.58,17.58,0,0,1,39.52,13.6a18.19,18.19,0,0,1,2.42-8.35C43.88,2.06,46.54,0,50.48,0a8.91,8.91,0,0,1,7,3.83C60.05,7.14,60.81,11,61,14.94Z"/><path class="cls-4" d="M88.27,14.89c-.14,4.31-1.11,8.1-3.7,11.34-4,5-10.17,5-14.15,0-3.08-3.88-4-8.39-3.55-13.22a18.1,18.1,0,0,1,2.31-7.68A10,10,0,0,1,75.47.27c3.67-.88,6.65.45,9,3.22a16.42,16.42,0,0,1,3.55,8.93C88.17,13.32,88.22,14.23,88.27,14.89Z"/><path class="cls-4" d="M37.14,36A15.81,15.81,0,0,1,35.94,42c-2.33,5.27-8,6.4-12.13,2.41a17.49,17.49,0,0,1-4.88-9.87,16.25,16.25,0,0,1,.75-9.48c2.16-5.06,7.48-6.37,11.66-2.81,3.36,2.86,4.95,6.67,5.56,11C37,34.14,37.06,35.05,37.14,36Z"/><path class="cls-4" d="M90.59,35.79A18.25,18.25,0,0,1,95,23.69a12.14,12.14,0,0,1,3.16-2.55,6.55,6.55,0,0,1,8.68,2,12,12,0,0,1,2.29,6.64,19.29,19.29,0,0,1-3.75,13.11,11.07,11.07,0,0,1-2.67,2.53,7,7,0,0,1-10.56-2.61A13.88,13.88,0,0,1,90.59,35.79Z"/><path d="M389.8,27.68l2,.62a4.38,4.38,0,0,1-1.5,2.43,4.21,4.21,0,0,1-2.66.8,4.31,4.31,0,0,1-3.28-1.36A5.2,5.2,0,0,1,383,26.44a5.5,5.5,0,0,1,1.29-3.89,4.42,4.42,0,0,1,3.39-1.38,4.17,4.17,0,0,1,3,1.08,4,4,0,0,1,1,1.85l-2,.48a2.06,2.06,0,0,0-.74-1.23,2.11,2.11,0,0,0-1.37-.45,2.28,2.28,0,0,0-1.81.8,3.92,3.92,0,0,0-.69,2.59,4.22,4.22,0,0,0,.68,2.7,2.23,2.23,0,0,0,1.78.81,2,2,0,0,0,1.39-.51A3,3,0,0,0,389.8,27.68Z"/><path d="M393,27.63a4,4,0,0,1,.47-1.86,3.25,3.25,0,0,1,1.34-1.36,3.91,3.91,0,0,1,1.93-.47,3.59,3.59,0,0,1,2.7,1.07,3.69,3.69,0,0,1,1.06,2.7,3.73,3.73,0,0,1-1.07,2.73,3.6,3.6,0,0,1-2.67,1.08,4.26,4.26,0,0,1-1.91-.45,3.14,3.14,0,0,1-1.38-1.32A4.46,4.46,0,0,1,393,27.63Zm2,.1a2.4,2.4,0,0,0,.51,1.65,1.64,1.64,0,0,0,1.27.58,1.6,1.6,0,0,0,1.26-.58,2.41,2.41,0,0,0,.51-1.66,2.39,2.39,0,0,0-.51-1.64,1.6,1.6,0,0,0-1.26-.58,1.64,1.64,0,0,0-1.27.58A2.4,2.4,0,0,0,395,27.73Z"/><path d="M408.64,31.36h-1.92V27.65a5.88,5.88,0,0,0-.12-1.52,1.08,1.08,0,0,0-.4-.53,1.15,1.15,0,0,0-.67-.19,1.53,1.53,0,0,0-.89.27,1.35,1.35,0,0,0-.55.72,6.75,6.75,0,0,0-.14,1.67v3.29H402V24.1h1.78v1.07a3,3,0,0,1,3.55-1,2,2,0,0,1,.8.59,2.16,2.16,0,0,1,.38.81,6.09,6.09,0,0,1,.1,1.29Z"/><path d="M413.92,24.1v1.53h-1.31v2.93a6.33,6.33,0,0,0,0,1,.42.42,0,0,0,.17.25.53.53,0,0,0,.32.09,2.47,2.47,0,0,0,.77-.18l.17,1.49a3.88,3.88,0,0,1-1.52.28,2.35,2.35,0,0,1-.94-.17,1.47,1.47,0,0,1-.61-.45,1.84,1.84,0,0,1-.27-.75,9.44,9.44,0,0,1-.06-1.35V25.63h-.88V24.1h.88V22.66l1.93-1.12V24.1Z"/><path d="M416.69,26.32,415,26a2.7,2.7,0,0,1,1-1.56,3.76,3.76,0,0,1,2.13-.5,4.62,4.62,0,0,1,1.91.3,1.91,1.91,0,0,1,.89.77,4,4,0,0,1,.26,1.72l0,2.24a8.13,8.13,0,0,0,.09,1.42,4,4,0,0,0,.34,1h-1.9q-.07-.2-.18-.57c0-.11-.06-.19-.07-.22a3.31,3.31,0,0,1-1.05.71,3.06,3.06,0,0,1-1.2.24,2.5,2.5,0,0,1-1.77-.6,2,2,0,0,1-.64-1.54,2.12,2.12,0,0,1,.29-1.1,2,2,0,0,1,.82-.74,6.8,6.8,0,0,1,1.53-.45,9.56,9.56,0,0,0,1.87-.47v-.19a1,1,0,0,0-.27-.79,1.66,1.66,0,0,0-1-.23,1.34,1.34,0,0,0-.8.2A1.39,1.39,0,0,0,416.69,26.32Zm2.57,1.55a11.66,11.66,0,0,1-1.17.3,3.56,3.56,0,0,0-1,.33.81.81,0,0,0-.37.68,1,1,0,0,0,.3.7,1.06,1.06,0,0,0,.76.29,1.68,1.68,0,0,0,1-.34,1.19,1.19,0,0,0,.45-.64,3.65,3.65,0,0,0,.08-.93Z"/><path d="M429.37,26.25l-1.89.34a1.42,1.42,0,0,0-.44-.86,1.31,1.31,0,0,0-.88-.28,1.41,1.41,0,0,0-1.14.49,2.52,2.52,0,0,0-.43,1.66,3,3,0,0,0,.43,1.83,1.44,1.44,0,0,0,1.17.53,1.3,1.3,0,0,0,.9-.31,1.94,1.94,0,0,0,.49-1.07l1.88.32a3.32,3.32,0,0,1-1.12,2,3.51,3.51,0,0,1-2.24.66,3.32,3.32,0,0,1-2.54-1,3.9,3.9,0,0,1-.94-2.78,3.88,3.88,0,0,1,.95-2.8,3.36,3.36,0,0,1,2.57-1,3.49,3.49,0,0,1,2.1.57A3.13,3.13,0,0,1,429.37,26.25Z"/><path d="M434.15,24.1v1.53h-1.31v2.93a6.33,6.33,0,0,0,0,1,.42.42,0,0,0,.17.25.58.58,0,0,0,.33.09,2.59,2.59,0,0,0,.77-.18l.16,1.49a3.85,3.85,0,0,1-1.52.28,2.33,2.33,0,0,1-.93-.17,1.41,1.41,0,0,1-.61-.45,1.84,1.84,0,0,1-.27-.75,7.74,7.74,0,0,1-.07-1.35V25.63H430V24.1h.88V22.66l1.93-1.12V24.1Z"/><path d="M382.35,48.16l3.85-10h1.43l4.1,10h-1.51l-1.17-3h-4.19l-1.1,3ZM385.24,44h3.4l-1.05-2.77c-.31-.84-.55-1.54-.71-2.08a11.5,11.5,0,0,1-.54,1.92Z"/><path d="M397.34,48.16v-.92a2.25,2.25,0,0,1-2,1.08,2.88,2.88,0,0,1-1.59-.47,3.17,3.17,0,0,1-1.13-1.34,4.56,4.56,0,0,1-.4-2,5.21,5.21,0,0,1,.36-2,2.78,2.78,0,0,1,1.09-1.35,2.85,2.85,0,0,1,1.62-.47,2.46,2.46,0,0,1,1.17.27,2.53,2.53,0,0,1,.83.72V38.14h1.22v10Zm-3.89-3.62a3.15,3.15,0,0,0,.59,2.08,1.78,1.78,0,0,0,1.39.69,1.74,1.74,0,0,0,1.37-.66,3,3,0,0,0,.56-2,3.46,3.46,0,0,0-.57-2.19,1.79,1.79,0,0,0-1.42-.7,1.74,1.74,0,0,0-1.37.67A3.36,3.36,0,0,0,393.45,44.54Z"/><path d="M405.13,48.16v-.92a2.26,2.26,0,0,1-2,1.08,2.93,2.93,0,0,1-1.6-.47,3.24,3.24,0,0,1-1.13-1.34,4.71,4.71,0,0,1-.4-2,5.21,5.21,0,0,1,.37-2,2.82,2.82,0,0,1,1.08-1.35,2.89,2.89,0,0,1,1.62-.47,2.46,2.46,0,0,1,1.17.27,2.68,2.68,0,0,1,.84.72V38.14h1.22v10Zm-3.89-3.62a3.15,3.15,0,0,0,.59,2.08,1.75,1.75,0,0,0,2.76,0,3.07,3.07,0,0,0,.56-2,3.46,3.46,0,0,0-.57-2.19,1.8,1.8,0,0,0-1.42-.7,1.72,1.72,0,0,0-1.37.67A3.3,3.3,0,0,0,401.24,44.54Z"/><path d="M408.19,48.16V40.9h1.11V42a3.09,3.09,0,0,1,.78-1,1.39,1.39,0,0,1,.79-.24,2.44,2.44,0,0,1,1.27.39l-.43,1.14a1.82,1.82,0,0,0-.9-.26,1.16,1.16,0,0,0-.72.24,1.29,1.29,0,0,0-.46.67,4.73,4.73,0,0,0-.21,1.44v3.8Z"/><path d="M417.84,45.82l1.27.16A3.08,3.08,0,0,1,418,47.71a3.78,3.78,0,0,1-4.6-.37,3.83,3.83,0,0,1-.93-2.75,4,4,0,0,1,.94-2.84,3.18,3.18,0,0,1,2.45-1,3.12,3.12,0,0,1,2.38,1,4,4,0,0,1,.92,2.79c0,.07,0,.18,0,.32h-5.41a2.77,2.77,0,0,0,.68,1.84,2,2,0,0,0,1.51.63,1.94,1.94,0,0,0,1.16-.35A2.41,2.41,0,0,0,417.84,45.82Zm-4-2h4.05a2.44,2.44,0,0,0-.46-1.37,1.88,1.88,0,0,0-1.53-.71,1.94,1.94,0,0,0-1.42.57A2.19,2.19,0,0,0,413.8,43.83Z"/><path d="M420.16,46l1.22-.19a1.71,1.71,0,0,0,.57,1.12,2,2,0,0,0,1.31.39,2,2,0,0,0,1.26-.34,1,1,0,0,0,.41-.81.74.74,0,0,0-.37-.66,5.07,5.07,0,0,0-1.25-.42,10.34,10.34,0,0,1-1.88-.59,1.73,1.73,0,0,1-.79-.69,1.91,1.91,0,0,1-.05-1.87,2,2,0,0,1,.6-.69,2.65,2.65,0,0,1,.79-.36,3.62,3.62,0,0,1,1.06-.14,4.29,4.29,0,0,1,1.5.24,2.05,2.05,0,0,1,.95.67,2.55,2.55,0,0,1,.43,1.12l-1.21.17a1.3,1.3,0,0,0-.47-.88,1.73,1.73,0,0,0-1.11-.31,2,2,0,0,0-1.21.28.8.8,0,0,0-.36.65.66.66,0,0,0,.15.43,1,1,0,0,0,.47.33c.12.05.48.15,1.08.32a14.44,14.44,0,0,1,1.83.57,1.92,1.92,0,0,1,.81.64,1.89,1.89,0,0,1,.29,1.06,2.08,2.08,0,0,1-.36,1.16,2.34,2.34,0,0,1-1,.84,4,4,0,0,1-1.54.29,3.4,3.4,0,0,1-2.15-.58A2.77,2.77,0,0,1,420.16,46Z"/><path d="M427.16,46l1.22-.19a1.71,1.71,0,0,0,.57,1.12,2,2,0,0,0,1.31.39,2,2,0,0,0,1.26-.34,1,1,0,0,0,.41-.81.74.74,0,0,0-.37-.66,5.07,5.07,0,0,0-1.25-.42,10.34,10.34,0,0,1-1.88-.59,1.73,1.73,0,0,1-.79-.69,1.91,1.91,0,0,1-.05-1.87,2,2,0,0,1,.6-.69,2.65,2.65,0,0,1,.79-.36,3.62,3.62,0,0,1,1.06-.14,4.29,4.29,0,0,1,1.5.24,2.05,2.05,0,0,1,.95.67,2.55,2.55,0,0,1,.43,1.12l-1.21.17a1.3,1.3,0,0,0-.47-.88,1.73,1.73,0,0,0-1.11-.31,2,2,0,0,0-1.21.28.8.8,0,0,0-.36.65.66.66,0,0,0,.15.43,1,1,0,0,0,.47.33c.12.05.48.15,1.08.32a14.44,14.44,0,0,1,1.83.57,1.92,1.92,0,0,1,.81.64,1.89,1.89,0,0,1,.29,1.06,2.08,2.08,0,0,1-.36,1.16,2.34,2.34,0,0,1-1,.84,4,4,0,0,1-1.54.29,3.4,3.4,0,0,1-2.15-.58A2.77,2.77,0,0,1,427.16,46Z"/><path d="M435,42.3V40.9h1.4v1.4Zm0,5.86v-1.4h1.4v1.4Z"/><path d="M442.1,45.51l1.23-.16a2.71,2.71,0,0,0,.72,1.51,1.76,1.76,0,0,0,1.24.46,2,2,0,0,0,1.47-.6,2,2,0,0,0,.59-1.49,1.88,1.88,0,0,0-.55-1.4,1.91,1.91,0,0,0-1.41-.55,3.22,3.22,0,0,0-.87.14l.14-1.08h.2a2.53,2.53,0,0,0,1.41-.41,1.41,1.41,0,0,0,.63-1.27,1.52,1.52,0,0,0-.45-1.12,1.81,1.81,0,0,0-2.38,0,2.25,2.25,0,0,0-.62,1.35l-1.23-.22a3.12,3.12,0,0,1,1-1.91,2.92,2.92,0,0,1,2-.68,3.23,3.23,0,0,1,1.51.35,2.54,2.54,0,0,1,1.42,2.25,2.12,2.12,0,0,1-.35,1.18,2.37,2.37,0,0,1-1,.85,2.35,2.35,0,0,1,1.38.85,2.58,2.58,0,0,1,.49,1.62,3,3,0,0,1-1,2.23,3.38,3.38,0,0,1-2.42.91,3.12,3.12,0,0,1-2.19-.79A3,3,0,0,1,442.1,45.51Z"/><path d="M451.77,42.73a2.34,2.34,0,0,1-1.13-.8,2.1,2.1,0,0,1-.37-1.25,2.45,2.45,0,0,1,.78-1.84,3.33,3.33,0,0,1,4.21,0,2.49,2.49,0,0,1,.8,1.86,2.09,2.09,0,0,1-.37,1.21,2.32,2.32,0,0,1-1.11.8,2.63,2.63,0,0,1,1.4,1,2.6,2.6,0,0,1,.49,1.6,2.92,2.92,0,0,1-.91,2.16,3.72,3.72,0,0,1-4.79,0,2.93,2.93,0,0,1-.91-2.19,2.67,2.67,0,0,1,.5-1.64A2.42,2.42,0,0,1,451.77,42.73Zm-.64,2.54a2.2,2.2,0,0,0,.25,1,1.75,1.75,0,0,0,.74.76,2.17,2.17,0,0,0,1.06.27,2,2,0,0,0,1.45-.57,1.92,1.92,0,0,0,.58-1.44,2,2,0,0,0-.59-1.47,2,2,0,0,0-1.48-.58,1.95,1.95,0,0,0-2,2Zm.39-4.63A1.58,1.58,0,0,0,452,41.8a1.79,1.79,0,0,0,2.36,0,1.5,1.5,0,0,0,.45-1.1,1.52,1.52,0,0,0-.47-1.14,1.58,1.58,0,0,0-1.16-.46,1.61,1.61,0,0,0-1.17.45A1.45,1.45,0,0,0,451.52,40.64Z"/><path d="M457.66,43.22a9.23,9.23,0,0,1,.37-2.86,3.42,3.42,0,0,1,1.09-1.67,2.72,2.72,0,0,1,1.81-.59,3.06,3.06,0,0,1,1.42.32,2.72,2.72,0,0,1,1,.94,5.1,5.1,0,0,1,.62,1.49,9.83,9.83,0,0,1,.23,2.37,9.22,9.22,0,0,1-.36,2.84,3.6,3.6,0,0,1-1.09,1.68,2.8,2.8,0,0,1-1.82.59,2.77,2.77,0,0,1-2.28-1A6.59,6.59,0,0,1,457.66,43.22Zm1.27,0a6.21,6.21,0,0,0,.58,3.28,1.65,1.65,0,0,0,2.85,0,6.36,6.36,0,0,0,.57-3.28,6.36,6.36,0,0,0-.57-3.29,1.73,1.73,0,0,0-1.44-.81,1.6,1.6,0,0,0-1.36.71A6.42,6.42,0,0,0,458.93,43.22Z"/><path d="M469.78,48.16v-10h1.33v5l5-5h1.79l-4.2,4.06,4.39,6h-1.75l-3.57-5.07-1.64,1.6v3.47Z"/><path d="M479,39.55V38.14h1.23v1.41Zm0,8.61V40.9h1.23v7.26Z"/><path d="M482.13,48.16V40.9h1.11v1a2.59,2.59,0,0,1,2.31-1.19,3,3,0,0,1,1.2.23,2,2,0,0,1,.83.62,2.4,2.4,0,0,1,.38.91,6.62,6.62,0,0,1,.07,1.2v4.46H486.8V43.74a3.17,3.17,0,0,0-.15-1.12,1.17,1.17,0,0,0-.5-.6,1.72,1.72,0,0,0-.86-.22,2,2,0,0,0-1.36.5,2.47,2.47,0,0,0-.57,1.89v4Z"/><path d="M489.69,48.76l1.2.18a1.14,1.14,0,0,0,.41.81,2.11,2.11,0,0,0,1.25.34,2.26,2.26,0,0,0,1.32-.34,1.7,1.7,0,0,0,.63-1,7,7,0,0,0,.09-1.58,2.55,2.55,0,0,1-2,.95,2.75,2.75,0,0,1-2.32-1.08,4.19,4.19,0,0,1-.82-2.59,4.87,4.87,0,0,1,.38-1.92,2.85,2.85,0,0,1,2.77-1.83,2.62,2.62,0,0,1,2.12,1V40.9h1.13v6.28a6,6,0,0,1-.34,2.4,2.58,2.58,0,0,1-1.1,1.12,3.82,3.82,0,0,1-1.84.41,3.46,3.46,0,0,1-2.1-.59A2,2,0,0,1,489.69,48.76Zm1-4.36a3.12,3.12,0,0,0,.57,2.08,1.78,1.78,0,0,0,1.42.66,1.83,1.83,0,0,0,1.42-.65,3.08,3.08,0,0,0,.57-2.05,2.94,2.94,0,0,0-.59-2,1.83,1.83,0,0,0-1.42-.68,1.8,1.8,0,0,0-1.4.67A3,3,0,0,0,490.71,44.4Z"/><path d="M501.3,44.94l1.25-.11a2.71,2.71,0,0,0,.41,1.23,2.15,2.15,0,0,0,1,.78,3.81,3.81,0,0,0,1.54.3,3.73,3.73,0,0,0,1.34-.22,1.9,1.9,0,0,0,.86-.62,1.46,1.46,0,0,0,.29-.86,1.34,1.34,0,0,0-.28-.83,2,2,0,0,0-.9-.59c-.27-.1-.86-.26-1.78-.49a9,9,0,0,1-1.94-.62A2.74,2.74,0,0,1,502,42a2.33,2.33,0,0,1-.35-1.25,2.52,2.52,0,0,1,.43-1.42,2.7,2.7,0,0,1,1.26-1,4.71,4.71,0,0,1,1.84-.34,5,5,0,0,1,2,.36,2.82,2.82,0,0,1,1.31,1.05A3,3,0,0,1,509,41l-1.27.1a2.06,2.06,0,0,0-.69-1.44,3.56,3.56,0,0,0-3.5,0,1.31,1.31,0,0,0-.55,1.06,1.14,1.14,0,0,0,.39.89,5.22,5.22,0,0,0,2,.71,14.73,14.73,0,0,1,2.22.64,3.09,3.09,0,0,1,1.29,1,2.5,2.5,0,0,1,.41,1.43,2.8,2.8,0,0,1-.45,1.51,3.06,3.06,0,0,1-1.32,1.1,4.62,4.62,0,0,1-1.93.39,5.64,5.64,0,0,1-2.28-.4,3.18,3.18,0,0,1-1.44-1.19A3.38,3.38,0,0,1,501.3,44.94Z"/><path d="M513.62,47.06l.17,1.09a4.68,4.68,0,0,1-.93.11,2,2,0,0,1-1-.22,1.13,1.13,0,0,1-.51-.55,4.12,4.12,0,0,1-.16-1.46V41.86h-.9v-1h.9V39.1l1.23-.74V40.9h1.24v1h-1.24V46.1a2.34,2.34,0,0,0,.06.68.61.61,0,0,0,.21.24.82.82,0,0,0,.42.09A4.61,4.61,0,0,0,513.62,47.06Z"/><path d="M515.14,48.16v-1.4h1.4v1.4a2.55,2.55,0,0,1-.27,1.25,1.77,1.77,0,0,1-.87.73l-.34-.52a1.19,1.19,0,0,0,.57-.51,2.27,2.27,0,0,0,.21-1Z"/><path d="M522.7,48.16v-10H524V47H529v1.18Z"/><path d="M529.93,44.53a3.75,3.75,0,0,1,1.12-3,3.34,3.34,0,0,1,2.28-.8,3.25,3.25,0,0,1,2.45,1,3.73,3.73,0,0,1,1,2.71,4.78,4.78,0,0,1-.42,2.2,3,3,0,0,1-1.23,1.25,3.5,3.5,0,0,1-1.75.44,3.24,3.24,0,0,1-2.46-1A3.91,3.91,0,0,1,529.93,44.53Zm1.26,0a3.07,3.07,0,0,0,.61,2.09,2,2,0,0,0,1.53.69,1.91,1.91,0,0,0,1.52-.7,3.12,3.12,0,0,0,.61-2.12,3,3,0,0,0-.61-2,2,2,0,0,0-3.05,0A3.07,3.07,0,0,0,531.19,44.53Z"/><path d="M538.17,48.16V40.9h1.11v1a2.59,2.59,0,0,1,2.31-1.19,2.92,2.92,0,0,1,1.2.23,2,2,0,0,1,.83.62,2.4,2.4,0,0,1,.38.91,6.62,6.62,0,0,1,.07,1.2v4.46h-1.23V43.74a3.47,3.47,0,0,0-.14-1.12,1.24,1.24,0,0,0-.51-.6,1.72,1.72,0,0,0-.86-.22,2,2,0,0,0-1.36.5,2.47,2.47,0,0,0-.57,1.89v4Z"/><path d="M550.67,48.16v-.92a2.26,2.26,0,0,1-2,1.08,2.91,2.91,0,0,1-1.6-.47,3.17,3.17,0,0,1-1.13-1.34,4.71,4.71,0,0,1-.4-2,5.21,5.21,0,0,1,.36-2A2.89,2.89,0,0,1,547,41.21a2.85,2.85,0,0,1,1.62-.47,2.46,2.46,0,0,1,1.17.27,2.53,2.53,0,0,1,.83.72V38.14h1.23v10Zm-3.89-3.62a3.15,3.15,0,0,0,.58,2.08,1.79,1.79,0,0,0,1.39.69,1.73,1.73,0,0,0,1.37-.66,3,3,0,0,0,.57-2,3.45,3.45,0,0,0-.58-2.19,1.77,1.77,0,0,0-1.41-.7,1.71,1.71,0,0,0-1.37.67A3.3,3.3,0,0,0,546.78,44.54Z"/><path d="M553.28,44.53a3.78,3.78,0,0,1,1.12-3,3.39,3.39,0,0,1,2.29-.8,3.25,3.25,0,0,1,2.45,1,3.73,3.73,0,0,1,1,2.71,4.78,4.78,0,0,1-.42,2.2,3,3,0,0,1-1.23,1.25,3.5,3.5,0,0,1-1.75.44,3.28,3.28,0,0,1-2.47-1A4,4,0,0,1,553.28,44.53Zm1.27,0a3.07,3.07,0,0,0,.61,2.09,1.94,1.94,0,0,0,1.53.69,1.91,1.91,0,0,0,1.52-.7,3.12,3.12,0,0,0,.61-2.12,3,3,0,0,0-.61-2,2,2,0,0,0-1.52-.7,1.94,1.94,0,0,0-1.53.69A3.07,3.07,0,0,0,554.55,44.53Z"/><path d="M561.53,48.16V40.9h1.11v1A2.59,2.59,0,0,1,565,40.74a3,3,0,0,1,1.2.23,2,2,0,0,1,.83.62,2.4,2.4,0,0,1,.38.91,7.72,7.72,0,0,1,.07,1.2v4.46H566.2V43.74a3.17,3.17,0,0,0-.15-1.12,1.14,1.14,0,0,0-.51-.6,1.68,1.68,0,0,0-.85-.22,2,2,0,0,0-1.36.5,2.47,2.47,0,0,0-.57,1.89v4Z"/><path d="M569.64,48.16v-1.4H571v1.4a2.44,2.44,0,0,1-.28,1.25,1.79,1.79,0,0,1-.86.73l-.35-.52a1.26,1.26,0,0,0,.58-.51,2.13,2.13,0,0,0,.2-1Z"/><path d="M576.85,43.28a5.43,5.43,0,0,1,1.34-3.91A4.54,4.54,0,0,1,581.65,38a4.81,4.81,0,0,1,2.5.66,4.41,4.41,0,0,1,1.7,1.85,6,6,0,0,1,.58,2.69,5.9,5.9,0,0,1-.61,2.73,4.22,4.22,0,0,1-1.75,1.82,5,5,0,0,1-2.43.62,4.79,4.79,0,0,1-2.53-.68,4.49,4.49,0,0,1-1.69-1.87A5.69,5.69,0,0,1,576.85,43.28Zm1.37,0a4,4,0,0,0,1,2.85,3.38,3.38,0,0,0,4.91,0,4.26,4.26,0,0,0,1-3,5.08,5.08,0,0,0-.42-2.14,3.1,3.1,0,0,0-1.21-1.41,3.25,3.25,0,0,0-1.79-.51,3.37,3.37,0,0,0-2.42,1A4.3,4.3,0,0,0,578.22,43.3Z"/><path d="M588.13,48.16v-10h1.36L594.75,46V38.14H596v10h-1.36l-5.26-7.88v7.88Z"/><path d="M383.45,65v-10h3.78a9.73,9.73,0,0,1,1.53.09,3.1,3.1,0,0,1,1.23.47,2.44,2.44,0,0,1,.81,1,3.28,3.28,0,0,1-.51,3.53,3.9,3.9,0,0,1-2.94.89h-2.57V65Zm1.33-5.26h2.59a2.72,2.72,0,0,0,1.82-.48,1.69,1.69,0,0,0,.54-1.34,1.83,1.83,0,0,0-.31-1.08,1.52,1.52,0,0,0-.84-.59,5.62,5.62,0,0,0-1.24-.09h-2.56Z"/><path d="M392.63,65v-10h1.23v3.59a2.77,2.77,0,0,1,2.18-1,3,3,0,0,1,1.4.31,1.9,1.9,0,0,1,.85.88,4.1,4.1,0,0,1,.26,1.63V65h-1.23v-4.6a1.91,1.91,0,0,0-.4-1.34,1.47,1.47,0,0,0-1.14-.42,2,2,0,0,0-1,.28,1.56,1.56,0,0,0-.69.77,3.44,3.44,0,0,0-.21,1.34v4Z"/><path d="M400,61.33a3.74,3.74,0,0,1,1.12-3,3.39,3.39,0,0,1,2.29-.8,3.23,3.23,0,0,1,2.44,1,3.69,3.69,0,0,1,.95,2.71,4.78,4.78,0,0,1-.42,2.2,3,3,0,0,1-1.22,1.25,3.53,3.53,0,0,1-1.75.44,3.28,3.28,0,0,1-2.47-1A3.91,3.91,0,0,1,400,61.33Zm1.27,0a3.12,3.12,0,0,0,.6,2.09,2,2,0,0,0,1.54.69,1.92,1.92,0,0,0,1.52-.7,3.12,3.12,0,0,0,.61-2.12,3,3,0,0,0-.61-2,2,2,0,0,0-3.06,0A3.12,3.12,0,0,0,401.23,61.33Z"/><path d="M408.21,65V57.7h1.1v1a2.61,2.61,0,0,1,2.31-1.19,3,3,0,0,1,1.21.23,1.92,1.92,0,0,1,.82.62,2.42,2.42,0,0,1,.39.91,8.09,8.09,0,0,1,.06,1.2V65h-1.23V60.54a3.21,3.21,0,0,0-.14-1.12,1.24,1.24,0,0,0-.51-.6,1.69,1.69,0,0,0-.86-.22,2,2,0,0,0-1.35.5,2.47,2.47,0,0,0-.57,1.89v4Z"/><path d="M421,62.62l1.27.16a3.12,3.12,0,0,1-1.11,1.73,3.36,3.36,0,0,1-2.08.61,3.32,3.32,0,0,1-2.53-1,3.83,3.83,0,0,1-.93-2.75,4,4,0,0,1,.94-2.84,3.18,3.18,0,0,1,2.45-1,3.1,3.1,0,0,1,2.38,1,3.91,3.91,0,0,1,.92,2.79v.32h-5.42a2.82,2.82,0,0,0,.68,1.84,2,2,0,0,0,1.52.63,1.91,1.91,0,0,0,1.15-.35A2.41,2.41,0,0,0,421,62.62Zm-4-2H421a2.36,2.36,0,0,0-.46-1.37,1.86,1.86,0,0,0-1.52-.71,2,2,0,0,0-1.43.56A2.24,2.24,0,0,0,416.92,60.63Z"/><path d="M424.12,59.1V57.7h1.4v1.4Zm0,5.86v-1.4h1.4V65Z"/><path d="M437.68,63.78V65h-6.62a2.2,2.2,0,0,1,.14-.85,4.53,4.53,0,0,1,.81-1.34,13,13,0,0,1,1.61-1.52,13.48,13.48,0,0,0,2.21-2.12,2.54,2.54,0,0,0,.57-1.48,1.62,1.62,0,0,0-.52-1.23,1.86,1.86,0,0,0-1.36-.5,1.92,1.92,0,0,0-1.43.53,2.06,2.06,0,0,0-.54,1.48l-1.26-.13a3.09,3.09,0,0,1,1-2.16,3.28,3.28,0,0,1,2.27-.74,3.15,3.15,0,0,1,2.29.8,2.61,2.61,0,0,1,.84,2,2.91,2.91,0,0,1-.25,1.18,4.47,4.47,0,0,1-.81,1.23,23.91,23.91,0,0,1-1.9,1.76c-.74.62-1.21,1-1.42,1.26a3.47,3.47,0,0,0-.52.67Z"/><path d="M445.47,63.78V65h-6.63a2,2,0,0,1,.15-.85,4.53,4.53,0,0,1,.81-1.34,13,13,0,0,1,1.61-1.52,13.91,13.91,0,0,0,2.21-2.12,2.54,2.54,0,0,0,.57-1.48,1.62,1.62,0,0,0-.52-1.23,1.88,1.88,0,0,0-1.37-.5,1.91,1.91,0,0,0-1.42.53,2.06,2.06,0,0,0-.54,1.48l-1.26-.13a3.09,3.09,0,0,1,1-2.16,3.33,3.33,0,0,1,2.28-.74,3.14,3.14,0,0,1,2.28.8,2.61,2.61,0,0,1,.84,2,3.07,3.07,0,0,1-.24,1.18,4.78,4.78,0,0,1-.82,1.23,20.78,20.78,0,0,1-1.9,1.76c-.73.62-1.21,1-1.42,1.26a3.91,3.91,0,0,0-.52.67Z"/><path d="M453.17,57.39l-1.22.1a2.24,2.24,0,0,0-.47-1.05,1.59,1.59,0,0,0-1.23-.53,1.69,1.69,0,0,0-1,.33,2.82,2.82,0,0,0-.92,1.23,6.65,6.65,0,0,0-.34,2.32,2.78,2.78,0,0,1,1.08-1,2.93,2.93,0,0,1,1.35-.33,2.78,2.78,0,0,1,2.09.9,3.27,3.27,0,0,1,.87,2.35,3.88,3.88,0,0,1-.41,1.75,3,3,0,0,1-1.11,1.24,3.07,3.07,0,0,1-1.62.43A3.18,3.18,0,0,1,447.7,64a5.77,5.77,0,0,1-1-3.73,6.63,6.63,0,0,1,1.08-4.22,3.06,3.06,0,0,1,2.52-1.15,2.85,2.85,0,0,1,1.94.66A2.81,2.81,0,0,1,453.17,57.39Zm-5,4.32a2.86,2.86,0,0,0,.27,1.22,2.06,2.06,0,0,0,.75.89,1.94,1.94,0,0,0,1,.3,1.73,1.73,0,0,0,1.34-.63,2.5,2.5,0,0,0,.56-1.71,2.32,2.32,0,0,0-.55-1.64,1.82,1.82,0,0,0-1.4-.59,1.89,1.89,0,0,0-1.41.59A2.16,2.16,0,0,0,448.15,61.71Z"/><path d="M464.85,57.39l-1.23.1a2.24,2.24,0,0,0-.46-1.05,1.59,1.59,0,0,0-1.23-.53,1.67,1.67,0,0,0-1,.33,2.74,2.74,0,0,0-.92,1.23,6.61,6.61,0,0,0-.35,2.32,2.88,2.88,0,0,1,1.09-1,2.93,2.93,0,0,1,1.35-.33,2.79,2.79,0,0,1,2.09.9,3.27,3.27,0,0,1,.87,2.35,3.88,3.88,0,0,1-.41,1.75,2.94,2.94,0,0,1-1.12,1.24,3,3,0,0,1-1.61.43A3.16,3.16,0,0,1,459.38,64a5.71,5.71,0,0,1-1-3.73,6.7,6.7,0,0,1,1.07-4.22A3.09,3.09,0,0,1,462,54.9a2.83,2.83,0,0,1,1.94.66A2.78,2.78,0,0,1,464.85,57.39Zm-5,4.32a2.86,2.86,0,0,0,.27,1.22,2,2,0,0,0,.76.89,1.89,1.89,0,0,0,1,.3,1.74,1.74,0,0,0,1.34-.63,2.5,2.5,0,0,0,.56-1.71,2.33,2.33,0,0,0-.56-1.64,1.8,1.8,0,0,0-1.39-.59,1.89,1.89,0,0,0-1.42.59A2.2,2.2,0,0,0,459.82,61.71Z"/><path d="M466.26,62.31l1.23-.16a2.71,2.71,0,0,0,.72,1.51,1.76,1.76,0,0,0,1.24.46,2,2,0,0,0,1.46-.6,2,2,0,0,0,.6-1.49,1.88,1.88,0,0,0-.55-1.4,1.91,1.91,0,0,0-1.41-.55,3.22,3.22,0,0,0-.87.14l.14-1.08h.2a2.56,2.56,0,0,0,1.41-.41,1.41,1.41,0,0,0,.63-1.27,1.49,1.49,0,0,0-.46-1.12,1.8,1.8,0,0,0-2.37,0,2.25,2.25,0,0,0-.62,1.35l-1.23-.22a3.16,3.16,0,0,1,1-1.91,3,3,0,0,1,2-.68,3.2,3.2,0,0,1,1.51.35,2.53,2.53,0,0,1,1.43,2.25,2.12,2.12,0,0,1-.35,1.18,2.43,2.43,0,0,1-1,.85,2.35,2.35,0,0,1,1.38.85,2.64,2.64,0,0,1,.49,1.62,3,3,0,0,1-1,2.23,3.4,3.4,0,0,1-2.42.91,3.12,3.12,0,0,1-2.19-.79A3,3,0,0,1,466.26,62.31Z"/><path d="M474.12,56.25V55.07h6.48v1a14,14,0,0,0-1.89,2.71,17.07,17.07,0,0,0-1.46,3.47,13.46,13.46,0,0,0-.47,2.76h-1.26A12.41,12.41,0,0,1,476,62.1a15.09,15.09,0,0,1,1.28-3.23A13.59,13.59,0,0,1,479,56.25Z"/><path d="M485.9,62.64l1.18-.11a2.05,2.05,0,0,0,.57,1.21,1.61,1.61,0,0,0,1.09.38,1.87,1.87,0,0,0,1-.26,2,2,0,0,0,.7-.7,3.7,3.7,0,0,0,.46-1.17,5.82,5.82,0,0,0,.19-1.5c0-.06,0-.14,0-.25a2.91,2.91,0,0,1-1,1,2.76,2.76,0,0,1-1.38.36,2.82,2.82,0,0,1-2.11-.9,3.31,3.31,0,0,1-.86-2.38,3.36,3.36,0,0,1,.9-2.45,3,3,0,0,1,2.25-.93,3.23,3.23,0,0,1,1.79.52,3.28,3.28,0,0,1,1.23,1.5,7.4,7.4,0,0,1,.42,2.82,9.08,9.08,0,0,1-.42,3.06,3.56,3.56,0,0,1-1.24,1.74,3.25,3.25,0,0,1-1.93.59,2.84,2.84,0,0,1-1.92-.65A2.81,2.81,0,0,1,485.9,62.64Zm5-4.42a2.37,2.37,0,0,0-.56-1.68,1.76,1.76,0,0,0-1.36-.62,1.88,1.88,0,0,0-1.43.67,2.48,2.48,0,0,0-.6,1.73,2.17,2.17,0,0,0,.57,1.56,1.91,1.91,0,0,0,1.43.6,1.8,1.8,0,0,0,1.4-.6A2.34,2.34,0,0,0,490.93,58.22Z"/><path d="M493.5,60a9.27,9.27,0,0,1,.36-2.86A3.65,3.65,0,0,1,495,55.48a2.79,2.79,0,0,1,1.81-.58,3.06,3.06,0,0,1,1.42.32,2.65,2.65,0,0,1,1,.94,4.85,4.85,0,0,1,.63,1.49A9.91,9.91,0,0,1,500,60a9.22,9.22,0,0,1-.36,2.84,3.51,3.51,0,0,1-1.08,1.68,2.81,2.81,0,0,1-1.83.59,2.75,2.75,0,0,1-2.27-1A6.59,6.59,0,0,1,493.5,60Zm1.26,0a6.21,6.21,0,0,0,.58,3.28,1.65,1.65,0,0,0,2.85,0,6.34,6.34,0,0,0,.58-3.28,6.33,6.33,0,0,0-.58-3.29,1.72,1.72,0,0,0-1.44-.81,1.56,1.56,0,0,0-1.35.71A6.3,6.3,0,0,0,494.76,60Z"/><path d="M501.29,62.31l1.23-.16a2.71,2.71,0,0,0,.72,1.51,1.76,1.76,0,0,0,1.24.46,2,2,0,0,0,1.47-.6,2,2,0,0,0,.6-1.49,1.9,1.9,0,0,0-2-2,3.1,3.1,0,0,0-.86.14l.13-1.08h.2a2.57,2.57,0,0,0,1.42-.41,1.41,1.41,0,0,0,.63-1.27,1.52,1.52,0,0,0-.46-1.12,1.66,1.66,0,0,0-1.18-.44,1.69,1.69,0,0,0-1.2.45,2.25,2.25,0,0,0-.62,1.35l-1.23-.22a3.12,3.12,0,0,1,1-1.91,2.93,2.93,0,0,1,2-.68,3.2,3.2,0,0,1,1.51.35,2.45,2.45,0,0,1,1.05,1,2.41,2.41,0,0,1,.37,1.29,2.12,2.12,0,0,1-.35,1.18,2.31,2.31,0,0,1-1,.85,2.35,2.35,0,0,1,1.38.85,2.58,2.58,0,0,1,.49,1.62,3,3,0,0,1-1,2.23,3.41,3.41,0,0,1-2.42.91,3.16,3.16,0,0,1-2.2-.79A3,3,0,0,1,501.29,62.31Z"/><path d="M515.45,57.39l-1.22.1a2.24,2.24,0,0,0-.46-1.05,1.62,1.62,0,0,0-1.23-.53,1.7,1.7,0,0,0-1,.33,2.8,2.8,0,0,0-.91,1.23,6.39,6.39,0,0,0-.35,2.32,2.85,2.85,0,0,1,1.08-1,2.93,2.93,0,0,1,1.35-.33,2.81,2.81,0,0,1,2.1.9,3.3,3.3,0,0,1,.86,2.35,3.87,3.87,0,0,1-.4,1.75,2.94,2.94,0,0,1-2.74,1.67A3.18,3.18,0,0,1,510,64a5.77,5.77,0,0,1-1-3.73,6.63,6.63,0,0,1,1.08-4.22,3.06,3.06,0,0,1,2.52-1.15,2.67,2.67,0,0,1,2.84,2.49Zm-5,4.32a2.86,2.86,0,0,0,.27,1.22,2,2,0,0,0,.76.89,1.88,1.88,0,0,0,1,.3,1.73,1.73,0,0,0,1.34-.63,2.45,2.45,0,0,0,.56-1.71,2.32,2.32,0,0,0-.55-1.64,1.8,1.8,0,0,0-1.39-.59,1.89,1.89,0,0,0-1.42.59A2.16,2.16,0,0,0,510.43,61.71Z"/><path d="M383.48,81.76v-10h7.25v1.18h-5.92V76h5.54v1.18h-5.54v3.41H391v1.18Z"/><path d="M392.15,78.75V77.52h3.78v1.23Z"/><path d="M397.3,81.76V74.5h1.1v1a2.56,2.56,0,0,1,.9-.86,2.53,2.53,0,0,1,1.3-.32,2.41,2.41,0,0,1,1.32.33,1.85,1.85,0,0,1,.73.94,2.59,2.59,0,0,1,2.24-1.27,2.24,2.24,0,0,1,1.66.59,2.57,2.57,0,0,1,.58,1.85v5h-1.22V77.19a3.39,3.39,0,0,0-.12-1.07,1.05,1.05,0,0,0-.44-.52,1.33,1.33,0,0,0-.73-.2,1.74,1.74,0,0,0-1.28.51,2.29,2.29,0,0,0-.5,1.63v4.22h-1.23V77a2.11,2.11,0,0,0-.3-1.23,1.15,1.15,0,0,0-1-.41,1.76,1.76,0,0,0-1,.28,1.61,1.61,0,0,0-.64.8,4.54,4.54,0,0,0-.19,1.51v3.77Z"/><path d="M413.69,80.86a4.51,4.51,0,0,1-1.31.83,4,4,0,0,1-1.36.23,2.64,2.64,0,0,1-1.84-.58,1.92,1.92,0,0,1-.64-1.49,2,2,0,0,1,.24-1,2.09,2.09,0,0,1,.64-.71,3.21,3.21,0,0,1,.88-.4,10.42,10.42,0,0,1,1.1-.18,10.84,10.84,0,0,0,2.19-.43c0-.17,0-.27,0-.32a1.38,1.38,0,0,0-.35-1.06,2,2,0,0,0-1.4-.41,2.18,2.18,0,0,0-1.28.3,1.81,1.81,0,0,0-.61,1.08l-1.21-.17a3.06,3.06,0,0,1,.54-1.25,2.38,2.38,0,0,1,1.09-.73,4.85,4.85,0,0,1,1.65-.25,4.27,4.27,0,0,1,1.51.22,1.88,1.88,0,0,1,.85.55,1.93,1.93,0,0,1,.38.83,5.86,5.86,0,0,1,.07,1.14v1.64a18.7,18.7,0,0,0,.07,2.17,2.86,2.86,0,0,0,.32.87h-1.29A2.58,2.58,0,0,1,413.69,80.86Zm-.1-2.74a9.16,9.16,0,0,1-2,.46,4.56,4.56,0,0,0-1.07.25,1.08,1.08,0,0,0-.49.4,1.06,1.06,0,0,0-.17.58,1,1,0,0,0,.38.82,1.58,1.58,0,0,0,1.09.33,2.5,2.5,0,0,0,1.26-.31,1.9,1.9,0,0,0,.81-.85,2.86,2.86,0,0,0,.2-1.23Z"/><path d="M416.75,73.15V71.74H418v1.41Zm0,8.61V74.5H418v7.26Z"/><path d="M419.83,81.76v-10h1.23v10Z"/><path d="M423.31,75.9V74.5h1.4v1.4Zm0,5.86v-1.4h1.4v1.4Z"/><path d="M430.25,79.59l1.22-.19a1.71,1.71,0,0,0,.57,1.12,2,2,0,0,0,1.31.39,2,2,0,0,0,1.26-.34,1,1,0,0,0,.41-.81.74.74,0,0,0-.37-.66,5.24,5.24,0,0,0-1.25-.42,10.34,10.34,0,0,1-1.88-.59,1.73,1.73,0,0,1-.79-.69,1.82,1.82,0,0,1-.27-1,1.87,1.87,0,0,1,.22-.9,2,2,0,0,1,.6-.69,2.65,2.65,0,0,1,.79-.36,4,4,0,0,1,1.06-.14,4.29,4.29,0,0,1,1.5.24,2.05,2.05,0,0,1,.95.67,2.55,2.55,0,0,1,.43,1.12l-1.21.17a1.3,1.3,0,0,0-.47-.88,1.73,1.73,0,0,0-1.11-.31,2,2,0,0,0-1.21.28.81.81,0,0,0-.36.65.71.71,0,0,0,.15.44,1,1,0,0,0,.47.32c.12,0,.48.15,1.08.32a14.44,14.44,0,0,1,1.83.57,1.92,1.92,0,0,1,.81.64,1.89,1.89,0,0,1,.29,1.06,2.08,2.08,0,0,1-.36,1.16,2.34,2.34,0,0,1-1,.84,4,4,0,0,1-1.54.29,3.4,3.4,0,0,1-2.15-.58A2.77,2.77,0,0,1,430.25,79.59Z"/><path d="M442.71,79.42l1.27.16a3.12,3.12,0,0,1-1.11,1.73,3.34,3.34,0,0,1-2.08.61,3.28,3.28,0,0,1-2.52-1,3.79,3.79,0,0,1-.94-2.75,4,4,0,0,1,.95-2.84,3.16,3.16,0,0,1,2.44-1,3.1,3.1,0,0,1,2.38,1,3.92,3.92,0,0,1,.93,2.79c0,.07,0,.18,0,.32H438.6a2.88,2.88,0,0,0,.68,1.84,2,2,0,0,0,1.52.63,1.89,1.89,0,0,0,1.15-.35A2.34,2.34,0,0,0,442.71,79.42Zm-4-2h4.06a2.44,2.44,0,0,0-.47-1.37,1.89,1.89,0,0,0-1.52-.71,2,2,0,0,0-1.43.57A2.24,2.24,0,0,0,438.67,77.43Z"/><path d="M445.52,81.76V74.5h1.1v1.1a3.22,3.22,0,0,1,.79-1,1.39,1.39,0,0,1,.79-.24,2.43,2.43,0,0,1,1.26.39L449,75.87a1.85,1.85,0,0,0-.91-.26,1.16,1.16,0,0,0-.72.24,1.29,1.29,0,0,0-.46.67,4.73,4.73,0,0,0-.2,1.44v3.8Z"/><path d="M452.21,81.76l-2.76-7.26h1.3l1.55,4.35c.17.47.33,1,.47,1.46.11-.38.26-.84.46-1.38l1.61-4.43h1.26l-2.74,7.26Z"/><path d="M457.2,73.15V71.74h1.23v1.41Zm0,8.61V74.5h1.23v7.26Z"/><path d="M465,79.1l1.21.16a3.14,3.14,0,0,1-1,2,2.94,2.94,0,0,1-2,.7,3.12,3.12,0,0,1-2.4-1,4,4,0,0,1-.9-2.79,5,5,0,0,1,.39-2.06,2.68,2.68,0,0,1,1.18-1.32,3.45,3.45,0,0,1,1.73-.44,3.07,3.07,0,0,1,1.94.59,2.76,2.76,0,0,1,1,1.7l-1.19.19a2,2,0,0,0-.61-1.1,1.55,1.55,0,0,0-1.05-.37,1.92,1.92,0,0,0-1.51.66,3.17,3.17,0,0,0-.58,2.11,3.29,3.29,0,0,0,.56,2.13,1.82,1.82,0,0,0,1.46.66,1.73,1.73,0,0,0,1.21-.44A2.2,2.2,0,0,0,465,79.1Z"/><path d="M472.27,79.42l1.27.16a3.12,3.12,0,0,1-1.11,1.73,3.36,3.36,0,0,1-2.08.61,3.32,3.32,0,0,1-2.53-1,3.83,3.83,0,0,1-.93-2.75,4,4,0,0,1,.94-2.84,3.18,3.18,0,0,1,2.45-1,3.1,3.1,0,0,1,2.38,1,3.91,3.91,0,0,1,.92,2.79v.32h-5.42a2.82,2.82,0,0,0,.68,1.84,2,2,0,0,0,1.52.63,1.91,1.91,0,0,0,1.15-.35A2.41,2.41,0,0,0,472.27,79.42Zm-4-2h4.06a2.44,2.44,0,0,0-.47-1.37,1.89,1.89,0,0,0-1.52-.71,2,2,0,0,0-1.43.57A2.19,2.19,0,0,0,468.23,77.43Z"/><path d="M474.6,79.59l1.21-.19a1.71,1.71,0,0,0,.57,1.12,2,2,0,0,0,1.31.39,1.92,1.92,0,0,0,1.26-.34,1,1,0,0,0,.41-.81.75.75,0,0,0-.36-.66,5.38,5.38,0,0,0-1.26-.42,10.62,10.62,0,0,1-1.88-.59,1.78,1.78,0,0,1-.79-.69,1.82,1.82,0,0,1-.27-1,2,2,0,0,1,.22-.9,1.93,1.93,0,0,1,.61-.69,2.58,2.58,0,0,1,.78-.36,4.05,4.05,0,0,1,1.06-.14,4.29,4.29,0,0,1,1.5.24,2.14,2.14,0,0,1,1,.67,2.68,2.68,0,0,1,.42,1.12l-1.2.17a1.31,1.31,0,0,0-.48-.88,1.73,1.73,0,0,0-1.11-.31,2,2,0,0,0-1.21.28.81.81,0,0,0-.36.65.71.71,0,0,0,.15.44,1.06,1.06,0,0,0,.47.32c.12,0,.49.15,1.09.32a14.15,14.15,0,0,1,1.82.57,1.73,1.73,0,0,1,1.11,1.7,2.08,2.08,0,0,1-.36,1.16,2.37,2.37,0,0,1-1,.84,3.9,3.9,0,0,1-1.53.29,3.45,3.45,0,0,1-2.16-.58A2.76,2.76,0,0,1,474.6,79.59Z"/><path d="M489.1,80.65a3.83,3.83,0,0,1-1,.82,2.22,2.22,0,0,1-1.11.31,2.27,2.27,0,0,1-1.18-.35,2.62,2.62,0,0,1-.93-1.1,3.63,3.63,0,0,1-.36-1.62,4.68,4.68,0,0,1,.56-2.18,4.17,4.17,0,0,1,1.38-1.63,2.89,2.89,0,0,1,1.61-.55,2.21,2.21,0,0,1,1.13.31,2.65,2.65,0,0,1,.93,1l.23-1.06h1.23l-1,4.59c-.13.63-.2,1-.2,1a.4.4,0,0,0,.14.32.46.46,0,0,0,.34.14,1.85,1.85,0,0,0,.95-.42,3.78,3.78,0,0,0,1.23-1.47,4.23,4.23,0,0,0,.45-1.89,4.07,4.07,0,0,0-2.32-3.72,5.52,5.52,0,0,0-2.56-.6,5.86,5.86,0,0,0-2.93.75,5.19,5.19,0,0,0-2,2.15,6.44,6.44,0,0,0-.72,3,5.56,5.56,0,0,0,.72,2.89,4.38,4.38,0,0,0,2.11,1.79,7.89,7.89,0,0,0,3.05.57,6.68,6.68,0,0,0,3-.6,4.68,4.68,0,0,0,1.81-1.46h1.24a4.66,4.66,0,0,1-1.2,1.46,6.24,6.24,0,0,1-2,1.18,8.11,8.11,0,0,1-2.82.44,9.62,9.62,0,0,1-2.8-.39,5.94,5.94,0,0,1-2.18-1.17,5.24,5.24,0,0,1-1.36-1.81,6.83,6.83,0,0,1-.58-2.79,7.51,7.51,0,0,1,.69-3.17A6.24,6.24,0,0,1,485,72.54a6.7,6.7,0,0,1,3.72-1,6.58,6.58,0,0,1,3,.7,5.2,5.2,0,0,1,1.4,8.16,3.64,3.64,0,0,1-2.72,1.38,1.66,1.66,0,0,1-.76-.15.9.9,0,0,1-.43-.41A1.78,1.78,0,0,1,489.1,80.65Zm-3.31-1.86a2.16,2.16,0,0,0,.45,1.46,1.29,1.29,0,0,0,1,.52,1.72,1.72,0,0,0,.8-.23,2.67,2.67,0,0,0,.81-.68,3.45,3.45,0,0,0,.63-1.14,4.06,4.06,0,0,0,.25-1.4,2.06,2.06,0,0,0-.46-1.44,1.46,1.46,0,0,0-1.13-.51,1.6,1.6,0,0,0-.82.22,2.52,2.52,0,0,0-.75.72A4,4,0,0,0,486,77.5,4.59,4.59,0,0,0,485.79,78.79Z"/><path d="M496.3,81.76V74.5h1.1v1a2.59,2.59,0,0,1,.91-.86,2.52,2.52,0,0,1,1.29-.32,2.39,2.39,0,0,1,1.32.33,1.8,1.8,0,0,1,.73.94,2.61,2.61,0,0,1,2.25-1.27,2.26,2.26,0,0,1,1.66.59,2.61,2.61,0,0,1,.58,1.85v5h-1.23V77.19a3.39,3.39,0,0,0-.12-1.07,1,1,0,0,0-.43-.52,1.39,1.39,0,0,0-.74-.2,1.72,1.72,0,0,0-1.27.51,2.24,2.24,0,0,0-.51,1.63v4.22h-1.23V77a2.11,2.11,0,0,0-.3-1.23,1.15,1.15,0,0,0-1-.41,1.71,1.71,0,0,0-1,.28,1.51,1.51,0,0,0-.64.8,4.5,4.5,0,0,0-.2,1.51v3.77Z"/><path d="M507.91,84.56l-.14-1.16a2.86,2.86,0,0,0,.71.11,1.33,1.33,0,0,0,.65-.14,1,1,0,0,0,.4-.38,5.24,5.24,0,0,0,.38-.92l.11-.3-2.76-7.27h1.33l1.51,4.2c.2.54.37,1.1.53,1.69.14-.57.31-1.12.5-1.66l1.56-4.23h1.23l-2.77,7.38a12.4,12.4,0,0,1-.69,1.65,2.43,2.43,0,0,1-.75.89,1.77,1.77,0,0,1-1,.29A2.43,2.43,0,0,1,507.91,84.56Z"/><path d="M517.65,80.66l.18,1.09a4.85,4.85,0,0,1-.93.11,2,2,0,0,1-1-.22,1.15,1.15,0,0,1-.52-.55,4.46,4.46,0,0,1-.15-1.46V75.46h-.9v-1h.9V72.7l1.22-.74V74.5h1.24v1h-1.24V79.7a1.94,1.94,0,0,0,.07.68.49.49,0,0,0,.21.24.82.82,0,0,0,.42.09A4.47,4.47,0,0,0,517.65,80.66Z"/><path d="M518.84,81.76V74.5H520v1.1a3.09,3.09,0,0,1,.78-1,1.39,1.39,0,0,1,.79-.24,2.43,2.43,0,0,1,1.26.39l-.42,1.14a1.82,1.82,0,0,0-.9-.26,1.21,1.21,0,0,0-.73.24,1.35,1.35,0,0,0-.46.67,5.06,5.06,0,0,0-.2,1.44v3.8Z"/><path d="M528.27,81.76V80.69a2.65,2.65,0,0,1-2.3,1.23,3,3,0,0,1-1.2-.24,2,2,0,0,1-.83-.62,2.28,2.28,0,0,1-.38-.91,6.41,6.41,0,0,1-.07-1.15V74.5h1.23v4a7.43,7.43,0,0,0,.07,1.3,1.32,1.32,0,0,0,.49.76,1.55,1.55,0,0,0,.93.27,2,2,0,0,0,1-.28,1.55,1.55,0,0,0,.69-.77,4,4,0,0,0,.2-1.42V74.5h1.23v7.26Z"/><path d="M536.27,79.42l1.27.16a3.12,3.12,0,0,1-1.11,1.73,3.38,3.38,0,0,1-2.08.61,3.31,3.31,0,0,1-2.53-1,3.83,3.83,0,0,1-.93-2.75,4,4,0,0,1,.94-2.84,3.18,3.18,0,0,1,2.45-1,3.12,3.12,0,0,1,2.38,1,4,4,0,0,1,.92,2.79c0,.07,0,.18,0,.32h-5.41a2.82,2.82,0,0,0,.68,1.84,2,2,0,0,0,1.52.63,1.91,1.91,0,0,0,1.15-.35A2.41,2.41,0,0,0,536.27,79.42Zm-4-2h4a2.44,2.44,0,0,0-.46-1.37,1.9,1.9,0,0,0-1.53-.71,1.94,1.94,0,0,0-1.42.57A2.19,2.19,0,0,0,532.23,77.43Z"/><path d="M539.38,81.76v-6.3h-1.09v-1h1.09v-.77a3.31,3.31,0,0,1,.13-1.09,1.53,1.53,0,0,1,.63-.77,2.2,2.2,0,0,1,1.25-.3,6.16,6.16,0,0,1,1.15.12l-.19,1.07a4.56,4.56,0,0,0-.72-.06,1.07,1.07,0,0,0-.79.24,1.23,1.23,0,0,0-.24.89v.67H542v1H540.6v6.3Z"/><path d="M543,81.76V74.5h1.11v1.1a3.09,3.09,0,0,1,.78-1,1.39,1.39,0,0,1,.79-.24,2.44,2.44,0,0,1,1.27.39l-.43,1.14a1.82,1.82,0,0,0-.9-.26,1.16,1.16,0,0,0-.72.24,1.29,1.29,0,0,0-.46.67,4.73,4.73,0,0,0-.21,1.44v3.8Z"/><path d="M547.65,73.15V71.74h1.23v1.41Zm0,8.61V74.5h1.23v7.26Z"/><path d="M555.72,79.42l1.27.16a3.12,3.12,0,0,1-1.11,1.73,3.38,3.38,0,0,1-2.08.61,3.29,3.29,0,0,1-2.53-1,3.83,3.83,0,0,1-.93-2.75,4,4,0,0,1,.94-2.84,3.18,3.18,0,0,1,2.45-1,3.12,3.12,0,0,1,2.38,1,4,4,0,0,1,.92,2.79c0,.07,0,.18,0,.32h-5.41a2.77,2.77,0,0,0,.68,1.84,2,2,0,0,0,1.51.63,1.94,1.94,0,0,0,1.16-.35A2.41,2.41,0,0,0,555.72,79.42Zm-4-2h4.05a2.44,2.44,0,0,0-.46-1.37,1.91,1.91,0,0,0-1.53-.71,1.94,1.94,0,0,0-1.42.57A2.19,2.19,0,0,0,551.68,77.43Z"/><path d="M558.53,81.76V74.5h1.11v1A2.59,2.59,0,0,1,562,74.34a3,3,0,0,1,1.21.23,1.92,1.92,0,0,1,.82.62,2.59,2.59,0,0,1,.39.91,8.09,8.09,0,0,1,.06,1.2v4.46H563.2V77.34a3.47,3.47,0,0,0-.14-1.12,1.17,1.17,0,0,0-.51-.59,1.6,1.6,0,0,0-.86-.23,2,2,0,0,0-1.35.5,2.47,2.47,0,0,0-.58,1.9v4Z"/><path d="M571,81.76v-.92a2.26,2.26,0,0,1-2,1.08,2.85,2.85,0,0,1-1.6-.47,3.15,3.15,0,0,1-1.12-1.34,4.56,4.56,0,0,1-.4-2,5.25,5.25,0,0,1,.36-2,2.82,2.82,0,0,1,1.08-1.35,2.9,2.9,0,0,1,1.63-.47,2.45,2.45,0,0,1,1.16.27,2.57,2.57,0,0,1,.84.72V71.74h1.22v10Zm-3.89-3.62a3.15,3.15,0,0,0,.59,2.08,1.75,1.75,0,0,0,2.76,0,3.07,3.07,0,0,0,.56-2,3.46,3.46,0,0,0-.57-2.19,1.79,1.79,0,0,0-1.42-.69,1.71,1.71,0,0,0-1.37.66A3.32,3.32,0,0,0,567.14,78.14Z"/><path class="cls-4" d="M895.06,89.75c-13,0-23.51-11-23.5-24.54s10.57-24.47,23.53-24.46,23.48,11,23.47,24.52S908,89.76,895.06,89.75Zm-14.47-24.5h0c0,1.85,0,3.69,0,5.54a16.18,16.18,0,0,0,.14,2.09c.44,3,1.84,5.31,4.61,6.54a9.81,9.81,0,0,0,4,.81c3.66,0,7.33,0,11,0a14.72,14.72,0,0,0,2.39-.19A7.55,7.55,0,0,0,908.93,75a11.15,11.15,0,0,0,.65-3.89c0-3.77,0-7.54,0-11.31a15.42,15.42,0,0,0-.13-2.15c-.46-3.13-2-5.46-4.87-6.64a9.9,9.9,0,0,0-3.68-.7c-3.88,0-7.77,0-11.65,0a9.53,9.53,0,0,0-4.19.93c-2.94,1.43-4.25,4-4.44,7.24C880.48,60.71,880.59,63,880.59,65.25Z"/><path class="cls-2" d="M880.59,65.25c0-2.27-.11-4.54,0-6.8.19-3.22,1.5-5.81,4.44-7.24a9.53,9.53,0,0,1,4.19-.93c3.88,0,7.77,0,11.65,0a9.9,9.9,0,0,1,3.68.7c2.91,1.18,4.41,3.51,4.87,6.64a15.42,15.42,0,0,1,.13,2.15c0,3.77,0,7.54,0,11.31a11.15,11.15,0,0,1-.65,3.89A7.55,7.55,0,0,1,902.71,80a14.72,14.72,0,0,1-2.39.19c-3.66,0-7.33,0-11,0a9.81,9.81,0,0,1-4-.81c-2.77-1.23-4.17-3.52-4.61-6.54a16.18,16.18,0,0,1-.14-2.09c0-1.85,0-3.69,0-5.54Zm14.48-12.14v0c-.38,0-.75,0-1.13,0-1.91,0-3.82,0-5.73.16a4.88,4.88,0,0,0-4.55,3.56,9.05,9.05,0,0,0-.42,2.64c0,3.77,0,7.54,0,11.32a12.75,12.75,0,0,0,.09,1.51,5.27,5.27,0,0,0,4.94,5c1.81.13,3.63.14,5.45.14,2.74,0,5.48,0,8.21-.16a4.81,4.81,0,0,0,4.55-3.55,9.39,9.39,0,0,0,.43-2.74c0-3.72,0-7.44,0-11.17a15.39,15.39,0,0,0-.09-1.66,5.27,5.27,0,0,0-4.1-4.81,8.75,8.75,0,0,0-1.91-.23C898.89,53.09,897,53.11,895.07,53.11Z"/><path class="cls-4" d="M895.07,53.11c1.91,0,3.82,0,5.73,0a8.75,8.75,0,0,1,1.91.23,5.27,5.27,0,0,1,4.1,4.81,15.39,15.39,0,0,1,.09,1.66c0,3.73,0,7.45,0,11.17a9.39,9.39,0,0,1-.43,2.74,4.81,4.81,0,0,1-4.55,3.55c-2.73.16-5.47.15-8.21.16-1.82,0-3.64,0-5.45-.14a5.27,5.27,0,0,1-4.94-5,12.75,12.75,0,0,1-.09-1.51c0-3.78,0-7.55,0-11.32a9.05,9.05,0,0,1,.42-2.64,4.88,4.88,0,0,1,4.55-3.56c1.91-.15,3.82-.12,5.73-.16.38,0,.75,0,1.13,0Zm7.63,12.18a7.65,7.65,0,1,0-7.62,7.93A7.79,7.79,0,0,0,902.7,65.29Zm0-9.55a1.56,1.56,0,0,0-1.51,1.6,1.53,1.53,0,1,0,3,0A1.56,1.56,0,0,0,902.73,55.74Z"/><path class="cls-2" d="M902.7,65.29a7.65,7.65,0,1,1-7.61-8A7.78,7.78,0,0,1,902.7,65.29Zm-2.71,0a4.93,4.93,0,1,0-4.93,5.13A5,5,0,0,0,900,65.26Z"/><path class="cls-2" d="M902.73,55.74a1.56,1.56,0,0,1,1.54,1.56,1.53,1.53,0,1,1-3,0A1.56,1.56,0,0,1,902.73,55.74Z"/><path class="cls-4" d="M900,65.26a4.93,4.93,0,1,1-4.92-5.14A5,5,0,0,1,900,65.26Z"/><path class="cls-4" d="M797.61,42.45h2.93c.56.07,1.11.12,1.67.2a22.64,22.64,0,0,1,13,6.32c6.09,6,8.39,13.33,6.69,21.71a22.68,22.68,0,0,1-12,15.93,20.21,20.21,0,0,1-4.32,1.73V71h5l.76-5.86h-5.76c0-1.56-.07-3.07,0-4.57a1.85,1.85,0,0,1,1.78-1.88,19.7,19.7,0,0,1,2.55-.11c.52,0,1,0,1.55,0V53.33c-1.1-.06-2.18-.17-3.25-.16a16.28,16.28,0,0,0-3.36.23,6.62,6.62,0,0,0-5.34,6.45c-.08,1.58,0,3.17,0,4.76v.58h-5v5.87h5V89.24l-.17,0h-.36a22.49,22.49,0,0,1-9.68-2.18A23.11,23.11,0,0,1,776,69.94c-.17-.86-.25-1.74-.37-2.62V64.4c0-.3.08-.6.11-.9a23.47,23.47,0,0,1,19.32-20.7C795.92,42.66,796.77,42.56,797.61,42.45Z"/></g></g></svg>