<svg xmlns="http://www.w3.org/2000/svg" viewBox="0 0 121 121"><defs><style>.cls-1{fill:#333;}.cls-2{fill:#00cd9d;}</style></defs><g id="Layer_2" data-name="Layer 2"><g id="Layer_2-2" data-name="Layer 2"><circle class="cls-1" cx="60.5" cy="60.5" r="60.5"/><path class="cls-2" d="M105.36,79.85a3.6,3.6,0,0,1-4,2.52c-2.23-.09-4.46,0-6.79,0a7.69,7.69,0,0,1-3,6.93,7.48,7.48,0,0,1-5.31,1.55c-4-.28-6.67-3.43-7-8.48H19.79c-2.65,0-4-1.53-3.59-4.13.05-.35.07-.69.12-1L19.56,49.5c.2-1.7.4-3.4.58-5.1a3.28,3.28,0,0,1,3.58-3.32H27.5c-.06-3.88,1.52-6.7,5.14-8,3.2-1.16,6-.19,8.32,2.2a9.28,9.28,0,0,1,2.37-1.68c1.61-.49,2.08-1.48,2.52-3a7.57,7.57,0,0,1,12.54-3.12c.16.17.33.32.55.52.12-.1.28-.22.41-.35a7.64,7.64,0,0,1,13.1,4.67.91.91,0,0,0,.46.68c.49.2.93.59,1.58.1a7.26,7.26,0,0,1,9.51.29,7.47,7.47,0,0,0,4.19,2.19,6.87,6.87,0,0,1,5.3,4.8c.2.56.43.78,1,.75,1.13-.05,2.26,0,3.4,0a3.19,3.19,0,0,1,3.38,3c.49,4.06,1,8.13,1.42,12.2Q103.39,62,104,67.67c.12,1-.29,1.73-1.13,1.82s-1.32-.42-1.45-1.47c-.57-4.76-1.12-9.52-1.68-14.28-.35-3.05-.71-6.11-1-9.17-.06-.59-.31-.91-.93-.88-.29,0-.58,0-.87,0H48.38a6,6,0,0,1-1,0,1.28,1.28,0,0,1,0-2.52,6,6,0,0,1,1-.05H74.45c1.14,0,1.17,0,1.09-1.18a5,5,0,0,0-3.76-4.51c-1.73-.44-1.94-.71-2-2.52a5,5,0,0,0-3.51-4.77,5,5,0,0,0-5.65,2c-1.13,1.69-2.32,1.7-3.42,0a5,5,0,0,0-5.72-2.07A5.07,5.07,0,0,0,48,33c0,1.6-.31,2-1.85,2.28a5.1,5.1,0,0,0-3.51,2.34c-1,1.53-2.27,1.52-3.27,0a5,5,0,0,0-9.26,2.56c0,.28.06.56.09.91h11c1,0,1.63.49,1.66,1.27s-.61,1.34-1.68,1.34h-17c-1.39,0-1.38,0-1.54,1.35Q21,59.62,19.3,74.19c-.18,1.5-.33,3-.54,4.5-.1.76.16,1.1.94,1,.17,0,.35,0,.52,0q29.46,0,58.91,0a1.68,1.68,0,0,0,1.62-.83,7.56,7.56,0,0,1,12.59.15,1.3,1.3,0,0,0,1.25.68c2.39,0,4.77,0,7.15,0,.94,0,1.07-.17,1-1.09l-.57-4.76a1.36,1.36,0,0,1,1.1-1.68,1.29,1.29,0,0,1,1.46,1.26c.19,1.32.33,2.65.5,4a8.33,8.33,0,0,0,.17.84ZM87,88.23a5,5,0,1,0-5-5A5,5,0,0,0,87,88.23ZM78.16,41l.22.18c.22-.15.57-.27.64-.48A8,8,0,0,1,82.94,36a4.71,4.71,0,0,0-6.73-.89A8,8,0,0,1,78.16,41Zm12.76,0a4.92,4.92,0,0,0-5.08-3.16c-1.92.2-3.77,1.65-4,3.16Z"/><path class="cls-2" d="M53,65.85c-.89,3.87-2.73,5.88-5.85,6.37a6.82,6.82,0,0,1-7-3.27c-1.56-2.6-1.27-5.41.9-8.27-2.21-2.79-2.67-5.77-.55-8.78a6.36,6.36,0,0,1,7-2.69c3.26.75,4.95,3,5.41,6.32H68.5c.91-4,2.75-5.93,6-6.44a6.81,6.81,0,0,1,6.8,3.29c1.57,2.61,1.27,5.43-.9,8.27,2.22,2.79,2.67,5.77.55,8.79a6.36,6.36,0,0,1-7,2.69c-3.26-.76-5-3-5.42-6.37H62.36c-.41,0-.82,0-1.22,0a1.25,1.25,0,0,1-1.28-1.26,1.27,1.27,0,0,1,1.23-1.32c.55-.05,1.1,0,1.65,0h5.84a2.33,2.33,0,0,1,2.62,2.48,4.24,4.24,0,1,0,7.09-3.33c-1.29-1.23-1.3-2,0-3.25a4.25,4.25,0,1,0-7.08-3.36,2.33,2.33,0,0,1-2.6,2.5q-7.84,0-15.68,0c-1.72,0-2.53-.81-2.65-2.55A4.25,4.25,0,1,0,43.1,59c1.42,1.39,1.42,2,0,3.43a4.25,4.25,0,1,0,7.19,3.28,2.35,2.35,0,0,1,2.66-2.52c.58,0,1.16,0,1.74,0a1.38,1.38,0,0,1,1.5,1.36c0,.74-.6,1.22-1.49,1.25l-1.57,0A.37.37,0,0,0,53,65.85Z"/></g></g></svg>