<svg xmlns="http://www.w3.org/2000/svg" viewBox="0 0 76.18 78.67"><defs><style>.cls-1{fill:#662d91;}</style></defs><g id="Layer_2" data-name="Layer 2"><g id="Layer_2-2" data-name="Layer 2"><path class="cls-1" d="M76.18,67.73a5,5,0,0,1-2.68,3.72,6.29,6.29,0,0,1-2.44.55c-5.53,0-11.06,0-16.59,0-3.85,0-6.08-3.43-4.67-7.13.82-2.16,1.68-4.3,2.6-6.62L46.52,60c.19,1.09.37,2.16.56,3.23.53,3.06,1.09,6.11,1.61,9.18a5,5,0,0,1-3.92,5.95,4.86,4.86,0,0,1-5.62-4.19q-1.5-8.35-2.95-16.7A5,5,0,0,1,40,51.52c2.78-.83,5.57-1.64,8.35-2.46l.8-.24c-.51-2.46-1-4.89-1.53-7.39-.68.65-1.25,1.25-1.87,1.79A18.41,18.41,0,0,1,35.61,47.5a24.08,24.08,0,0,1-3.49.24,5.33,5.33,0,0,1-2.06-.5,1.67,1.67,0,0,0-1.16-.1c-2.07.42-3.21,1.73-4.12,3.66-2.37,5-5,9.87-7.45,14.8A3.5,3.5,0,0,0,17,67.19c.08,2.91.2,5.81.32,8.72a2.27,2.27,0,0,1-1,2.23,2.11,2.11,0,0,1-3.18-1.9c0-.92-.09-1.84-.11-2.76s0-1.78,0-2.67l-.21,0-.57,3.62c-.11.71-.2,1.41-.31,2.12-.23,1.5-1.21,2.32-2.49,2.1s-1.87-1.31-1.65-2.79c.5-3.35,1-6.71,1.51-10,.08-.48-.09-.64-.41-.9a3.67,3.67,0,0,0-4.73-.38,9.51,9.51,0,0,1-1.85.78,1.54,1.54,0,0,1-2.17-.83,1.61,1.61,0,0,1,1.06-2.12c1.07-.46,2.17-.85,3.23-1.35a2.38,2.38,0,0,0,1-.9C7.48,56.41,9.51,52.7,11.57,49a3,3,0,0,1,.76-.9c2.57-2,5.16-3.9,7.72-5.86a.77.77,0,0,1,1.05-.05c1,.61,1.95,1.21,2.95,1.76a1.36,1.36,0,0,0,.89.07c.6-.16,1.17-.42,1.75-.63a4.14,4.14,0,0,0,2.46-1.63,3.06,3.06,0,0,1,2.73-1.31,13.45,13.45,0,0,0,9.34-3.54,12.41,12.41,0,0,0,4-7.9,8.74,8.74,0,0,1,7.58-7.7,8.41,8.41,0,0,1,7.66,2.82A7.73,7.73,0,0,1,62,27.94Q64,37.45,66,46.93a7.31,7.31,0,0,1-.36,4.34c-1.35,3.4-2.67,6.81-4,10.21-.06.16-.09.33-.16.58h2.49c2.11,0,4.22.09,6.32,0,3.21-.18,5.34,1.44,5.93,4.32Z"/><path class="cls-1" d="M50.85,0A9.33,9.33,0,0,1,60,9.45a9.17,9.17,0,1,1-18.32-.13A9.29,9.29,0,0,1,50.85,0Z"/><path class="cls-1" d="M23.49,45.31c-1.35-2.16-2.58-4.29-4-6.3a40.64,40.64,0,0,0-3.37-4c-.85-.94-1.16-1.67-.8-2.41a2.15,2.15,0,0,1,2.53-.94c.78.23,1.48.71,2.23,1a1.16,1.16,0,0,0,.93,0,9.12,9.12,0,0,1,3.53-1.35,5.6,5.6,0,0,0,2.75-1.39A20.46,20.46,0,0,1,30,27.81c1.89-1.27,3.29.06,3.76,1.57.65,2-.12,3.74-1.3,5.31a1.41,1.41,0,0,1-.3.34c-1.28.81-1.18,1.87-.55,3a8.08,8.08,0,0,1,.36,1Z"/></g></g></svg>