<svg xmlns="http://www.w3.org/2000/svg" viewBox="0 0 69.33 82.3"><defs><style>.cls-1{fill:#00cd9d;}.cls-2{fill:#fff;}</style></defs><g id="Layer_2" data-name="Layer 2"><g id="Layer_2-2" data-name="Layer 2"><path class="cls-1" d="M31.29,82.3c-1.37-.16-2.75-.29-4.12-.49A24.39,24.39,0,0,1,15.08,77.1,17.16,17.16,0,0,1,8.67,65,28.74,28.74,0,0,1,9,57a5.53,5.53,0,0,0,0-.61c-.5-.11-1-.2-1.48-.32C2.88,54.92-1.87,50,.74,42.77a32.29,32.29,0,0,1,9.25-13,13.37,13.37,0,0,1,5.81-3.09,9.47,9.47,0,0,1,6.92.83,1,1,0,0,0,.84,0c5.86-4,16.18-4,22.06-.14a.89.89,0,0,0,.76.07,9.72,9.72,0,0,1,9.52-.11,13.91,13.91,0,0,1,3,1.86A33,33,0,0,1,68.24,41.6a11.37,11.37,0,0,1,1,6,9.82,9.82,0,0,1-8.12,8.3l-.7.15c.15,2,.37,4,.42,5.89.11,4.81-1,9.24-4.25,13a19.69,19.69,0,0,1-11,6.21c-2.23.5-4.53.69-6.8,1-.26,0-.52.09-.78.14Zm5.8-4.87A29.37,29.37,0,0,0,48.3,75.17a12.25,12.25,0,0,0,7.42-9.33,21.83,21.83,0,0,0-.62-10.56c-1.27-4-2.73-8-4.18-12A49.83,49.83,0,0,0,48.62,38c-2.51-5-6.35-8.19-12.13-8.62-5.22-.39-10,.69-13.35,5A22.12,22.12,0,0,0,20,39.7C18,44.48,16.31,49.34,14.6,54.21a23.08,23.08,0,0,0-1.11,10.53,12.31,12.31,0,0,0,6,9.61A21.11,21.11,0,0,0,27.47,77c1.57.23,3.15.34,4.72.5a2.54,2.54,0,0,0,.08-.38c0-3.21,0-6.43,0-9.64a1.08,1.08,0,0,0-.54-.73,10,10,0,0,1-4.28-4.53,5.55,5.55,0,0,1,3.9-8,15.21,15.21,0,0,1,6.68,0A5.56,5.56,0,0,1,42,62.23a9.51,9.51,0,0,1-4.31,4.48.9.9,0,0,0-.56.93c0,2.6,0,5.19,0,7.79ZM49.87,31.1c3.39,4.12,5.05,8.95,6.72,13.78.68,2,1.41,3.92,2.15,5.87.08.22.35.53.53.53,3.33,0,5.7-2.78,5.15-5.58a12.15,12.15,0,0,0-.69-2.37,28.23,28.23,0,0,0-7.59-10.21,12.5,12.5,0,0,0-2.71-1.67A5.11,5.11,0,0,0,49.87,31.1Zm-30.6.31c-.13-.09-.17-.14-.21-.15a2.57,2.57,0,0,0-.4-.07,7,7,0,0,0-4.88,1.7A27,27,0,0,0,5.42,44.06a7.59,7.59,0,0,0-.49,3.43c.24,2.28,2.7,4.14,5.07,4.06a.87.87,0,0,0,.55-.5c.69-1.8,1.35-3.6,2-5.42C14.27,40.66,15.88,35.64,19.27,31.41ZM34.7,58.6c-.76.09-1.56.12-2.33.29a1.06,1.06,0,0,0-.69.71c-.1,1.08,2,3.14,3.09,3.07a1.18,1.18,0,0,0,.31-.08,4.65,4.65,0,0,0,2.54-2.52c.3-.68.08-1.08-.66-1.22S35.48,58.69,34.7,58.6Z"/><path class="cls-1" d="M41.72,0c.53.17,1.07.31,1.58.51A7.25,7.25,0,0,1,46,12.09c-2.08,2.27-4.27,4.44-6.53,6.53a7.11,7.11,0,0,1-9.7-.06c-2.16-2-4.26-4.14-6.3-6.29a6.88,6.88,0,0,1-1.65-7.22A7,7,0,0,1,27.4.14,2.67,2.67,0,0,0,27.76,0h2.09a8.8,8.8,0,0,1,3.63,1.74L34.7,2.87C36.87.92,36.87.92,39.64,0Zm-7,15.86a8.32,8.32,0,0,0,1.79-1c2-1.88,3.89-3.82,5.79-5.77a2.45,2.45,0,0,0,.08-3.58,2.47,2.47,0,0,0-3.58.15c-.75.72-1.47,1.47-2.22,2.2a2.41,2.41,0,0,1-3.68,0c-.77-.75-1.51-1.52-2.28-2.27a2.46,2.46,0,0,0-3.51-.11,2.43,2.43,0,0,0,0,3.57C29,11,30.94,13,32.91,14.86A8.39,8.39,0,0,0,34.68,15.86Z"/><path class="cls-2" d="M37.09,77.43v-2c0-2.6,0-5.19,0-7.79a.9.9,0,0,1,.56-.93A9.51,9.51,0,0,0,42,62.23,5.56,5.56,0,0,0,38,54.15a15.21,15.21,0,0,0-6.68,0,5.55,5.55,0,0,0-3.9,8,10,10,0,0,0,4.28,4.53,1.08,1.08,0,0,1,.54.73c0,3.21,0,6.43,0,9.64a2.54,2.54,0,0,1-.08.38c-1.57-.16-3.15-.27-4.72-.5a21.11,21.11,0,0,1-7.93-2.63,12.31,12.31,0,0,1-6-9.61A23.08,23.08,0,0,1,14.6,54.21C16.31,49.34,18,44.48,20,39.7a22.12,22.12,0,0,1,3.18-5.35c3.4-4.33,8.13-5.41,13.35-5,5.78.43,9.62,3.62,12.13,8.62a49.83,49.83,0,0,1,2.3,5.37c1.45,4,2.91,7.94,4.18,12a21.83,21.83,0,0,1,.62,10.56,12.25,12.25,0,0,1-7.42,9.33A29.37,29.37,0,0,1,37.09,77.43Zm6.4-32.08c0-.64,0-1.28,0-1.92a2.38,2.38,0,0,0-2.28-2.34,2.35,2.35,0,0,0-2.49,2.2c-.07,1.33-.07,2.67,0,4a2.39,2.39,0,0,0,4.78-.1C43.51,46.58,43.49,46,43.49,45.35Zm-17.65-.13c0,.64,0,1.29,0,1.93a2.39,2.39,0,0,0,4.78.11q.09-2,0-3.93a2.35,2.35,0,0,0-2.45-2.24,2.38,2.38,0,0,0-2.33,2.37C25.82,44.05,25.84,44.64,25.84,45.22Z"/><path class="cls-2" d="M49.87,31.1a5.11,5.11,0,0,1,3.56.35,12.5,12.5,0,0,1,2.71,1.67,28.23,28.23,0,0,1,7.59,10.21,12.15,12.15,0,0,1,.69,2.37c.55,2.8-1.82,5.56-5.15,5.58-.18,0-.45-.31-.53-.53-.74-2-1.47-3.9-2.15-5.87C54.92,40.05,53.26,35.22,49.87,31.1Z"/><path class="cls-2" d="M19.27,31.41c-3.39,4.23-5,9.25-6.73,14.22-.64,1.82-1.3,3.62-2,5.42a.87.87,0,0,1-.55.5c-2.37.08-4.83-1.78-5.07-4.06a7.59,7.59,0,0,1,.49-3.43,27,27,0,0,1,8.36-11.17,7,7,0,0,1,4.88-1.7,2.57,2.57,0,0,1,.4.07S19.14,31.32,19.27,31.41Z"/><path class="cls-2" d="M34.7,58.6c.78.09,1.53.12,2.26.25s1,.54.66,1.22a4.65,4.65,0,0,1-2.54,2.52,1.18,1.18,0,0,1-.31.08c-1.05.07-3.19-2-3.09-3.07a1.06,1.06,0,0,1,.69-.71C33.14,58.72,33.94,58.69,34.7,58.6Z"/><path class="cls-1" d="M43.49,45.35c0,.61,0,1.23,0,1.84a2.39,2.39,0,0,1-4.78.1c-.06-1.33-.06-2.67,0-4a2.35,2.35,0,0,1,2.49-2.2,2.38,2.38,0,0,1,2.28,2.34C43.51,44.07,43.49,44.71,43.49,45.35Z"/><path class="cls-1" d="M25.84,45.22c0-.58,0-1.17,0-1.76a2.38,2.38,0,0,1,2.33-2.37,2.35,2.35,0,0,1,2.45,2.24q.09,2,0,3.93a2.39,2.39,0,0,1-4.78-.11C25.82,46.51,25.84,45.86,25.84,45.22Z"/></g></g></svg>