<svg xmlns="http://www.w3.org/2000/svg" viewBox="0 0 121 121"><defs><style>.cls-1{fill:#333;}.cls-2{fill:#00cd9d;}</style></defs><g id="Layer_2" data-name="Layer 2"><g id="Layer_2-2" data-name="Layer 2"><circle class="cls-1" cx="60.5" cy="60.5" r="60.5"/><path class="cls-2" d="M55.64,97.31c-1.37-.16-2.75-.28-4.12-.48-4.4-.63-8.55-1.9-12.09-4.72A17.12,17.12,0,0,1,33,80.05a28.79,28.79,0,0,1,.3-8.08,5.34,5.34,0,0,0,0-.6c-.5-.11-1-.2-1.48-.32-4.64-1.12-9.39-6.08-6.78-13.27a32.26,32.26,0,0,1,9.25-13,13.17,13.17,0,0,1,5.81-3.09,9.42,9.42,0,0,1,6.92.83,1,1,0,0,0,.84,0c5.86-4,16.18-4,22.06-.14a.89.89,0,0,0,.76.06,9.75,9.75,0,0,1,9.52-.1,13.53,13.53,0,0,1,3,1.86,32.92,32.92,0,0,1,9.36,12.45,11.38,11.38,0,0,1,1,6A9.83,9.83,0,0,1,85.47,71l-.7.14c.15,2,.37,4,.42,5.9.11,4.81-1,9.24-4.25,13a19.81,19.81,0,0,1-11,6.21c-2.23.5-4.53.68-6.8,1l-.78.14Zm5.8-4.87a29.17,29.17,0,0,0,11.21-2.25,12.25,12.25,0,0,0,7.42-9.33,21.82,21.82,0,0,0-.62-10.56c-1.27-4-2.73-8-4.18-12A49,49,0,0,0,73,53c-2.51-5-6.35-8.19-12.13-8.62-5.22-.39-10,.68-13.35,5a22.25,22.25,0,0,0-3.18,5.34C42.38,59.5,40.66,64.36,39,69.23a23.07,23.07,0,0,0-1.11,10.53,12.27,12.27,0,0,0,6,9.6A20.94,20.94,0,0,0,51.82,92c1.57.23,3.15.34,4.72.51a2.83,2.83,0,0,0,.08-.38c0-3.22,0-6.43,0-9.65a1.08,1.08,0,0,0-.54-.73,9.93,9.93,0,0,1-4.28-4.53,5.54,5.54,0,0,1,3.9-8,15.21,15.21,0,0,1,6.68,0,5.55,5.55,0,0,1,3.94,8.07A9.53,9.53,0,0,1,62,81.73a.9.9,0,0,0-.56.93c0,2.59,0,5.19,0,7.79ZM74.22,46.11c3.39,4.13,5,9,6.72,13.79.68,2,1.41,3.92,2.15,5.86.08.22.35.53.53.53,3.33,0,5.7-2.77,5.15-5.57a12.24,12.24,0,0,0-.69-2.38,28.11,28.11,0,0,0-7.59-10.2,12.13,12.13,0,0,0-2.71-1.67A5.17,5.17,0,0,0,74.22,46.11Zm-30.6.31a1.12,1.12,0,0,0-.21-.14,2.57,2.57,0,0,0-.4-.07,7,7,0,0,0-4.88,1.7,27,27,0,0,0-8.36,11.16,7.65,7.65,0,0,0-.49,3.44c.24,2.27,2.7,4.13,5.07,4.05.19,0,.47-.28.55-.5.69-1.79,1.35-3.6,2-5.41C38.62,55.68,40.23,50.65,43.62,46.42Zm15.43,27.2a20.84,20.84,0,0,0-2.33.28,1.1,1.1,0,0,0-.69.72c-.1,1.07,2,3.14,3.09,3.06a.87.87,0,0,0,.31-.07A4.68,4.68,0,0,0,62,75.09c.3-.69.08-1.09-.66-1.22S59.83,73.7,59.05,73.62Z"/><path class="cls-2" d="M66.07,15c.53.17,1.07.31,1.58.51a7.25,7.25,0,0,1,2.74,11.58c-2.08,2.27-4.27,4.43-6.53,6.53a7.1,7.1,0,0,1-9.7-.07c-2.16-2-4.26-4.14-6.3-6.29a6.87,6.87,0,0,1-1.65-7.21,7,7,0,0,1,5.54-4.91c.12,0,.24-.1.36-.14H54.2a8.68,8.68,0,0,1,3.63,1.74l1.22,1.12C61.22,15.93,61.22,15.93,64,15ZM59,30.87a7.9,7.9,0,0,0,1.79-1c2-1.89,3.89-3.82,5.79-5.77a2.45,2.45,0,0,0,.08-3.58,2.47,2.47,0,0,0-3.58.14c-.75.73-1.47,1.48-2.22,2.21a2.41,2.41,0,0,1-3.68,0c-.77-.74-1.51-1.52-2.27-2.26a2.46,2.46,0,1,0-3.48,3.46c1.92,1.94,3.83,3.89,5.8,5.77A8.39,8.39,0,0,0,59,30.87Z"/><path class="cls-1" d="M61.44,92.44v-2c0-2.6,0-5.2,0-7.79a.9.9,0,0,1,.56-.93,9.53,9.53,0,0,0,4.31-4.49,5.55,5.55,0,0,0-3.94-8.07,15.21,15.21,0,0,0-6.68,0,5.54,5.54,0,0,0-3.9,8,9.93,9.93,0,0,0,4.28,4.53,1.08,1.08,0,0,1,.54.73c0,3.22,0,6.43,0,9.65a2.83,2.83,0,0,1-.08.38c-1.57-.17-3.15-.28-4.72-.51a20.94,20.94,0,0,1-7.93-2.63,12.27,12.27,0,0,1-6-9.6A23.07,23.07,0,0,1,39,69.23c1.71-4.87,3.43-9.73,5.36-14.52a22.25,22.25,0,0,1,3.18-5.34c3.4-4.34,8.13-5.41,13.35-5C66.62,44.78,70.46,48,73,53a49,49,0,0,1,2.3,5.37c1.45,4,2.91,7.93,4.18,12a21.82,21.82,0,0,1,.62,10.56,12.25,12.25,0,0,1-7.42,9.33A29.17,29.17,0,0,1,61.44,92.44Zm6.4-32.07c0-.65,0-1.29,0-1.93a2.36,2.36,0,0,0-2.28-2.33,2.34,2.34,0,0,0-2.49,2.19c-.07,1.34-.07,2.68,0,4a2.39,2.39,0,0,0,4.78-.1C67.86,61.6,67.84,61,67.84,60.37Zm-17.65-.13c0,.64,0,1.28,0,1.92a2.39,2.39,0,0,0,4.78.12C55,61,55,59.66,55,58.35a2.35,2.35,0,0,0-2.45-2.24,2.38,2.38,0,0,0-2.33,2.37C50.17,59.06,50.19,59.65,50.19,60.24Z"/><path class="cls-1" d="M74.22,46.11a5.17,5.17,0,0,1,3.56.36,12.13,12.13,0,0,1,2.71,1.67,28.11,28.11,0,0,1,7.59,10.2,12.24,12.24,0,0,1,.69,2.38c.55,2.8-1.82,5.56-5.15,5.57-.18,0-.45-.31-.53-.53-.74-1.94-1.47-3.9-2.15-5.86C79.27,55.07,77.61,50.24,74.22,46.11Z"/><path class="cls-1" d="M43.62,46.42c-3.39,4.23-5,9.26-6.73,14.23-.64,1.81-1.3,3.62-2,5.41-.08.22-.36.5-.55.5-2.37.08-4.83-1.78-5.07-4.05a7.65,7.65,0,0,1,.49-3.44,27,27,0,0,1,8.36-11.16A7,7,0,0,1,43,46.21a2.57,2.57,0,0,1,.4.07A1.12,1.12,0,0,1,43.62,46.42Z"/><path class="cls-1" d="M59.05,73.62c.78.08,1.53.12,2.26.25s1,.53.66,1.22a4.68,4.68,0,0,1-2.54,2.52.87.87,0,0,1-.31.07c-1,.08-3.19-2-3.09-3.06a1.1,1.1,0,0,1,.69-.72A20.84,20.84,0,0,1,59.05,73.62Z"/><path class="cls-2" d="M67.84,60.37c0,.61,0,1.23,0,1.84a2.39,2.39,0,0,1-4.78.1c-.06-1.33-.06-2.67,0-4a2.34,2.34,0,0,1,2.49-2.19,2.36,2.36,0,0,1,2.28,2.33C67.86,59.08,67.84,59.72,67.84,60.37Z"/><path class="cls-2" d="M50.19,60.24c0-.59,0-1.18,0-1.76a2.38,2.38,0,0,1,2.33-2.37A2.35,2.35,0,0,1,55,58.35C55,59.66,55,61,55,62.28a2.39,2.39,0,0,1-4.78-.12C50.17,61.52,50.19,60.88,50.19,60.24Z"/></g></g></svg>