<svg xmlns="http://www.w3.org/2000/svg" viewBox="0 0 47 49"><defs><style>.cls-1{fill:#662d91;}.cls-2{fill:#fff;}</style></defs><g id="Layer_2" data-name="Layer 2"><g id="Layer_2-2" data-name="Layer 2"><path class="cls-1" d="M23.49,49C10.51,49,0,38,0,24.46S10.56,0,23.53,0,47,11,47,24.52,36.46,49,23.49,49ZM9,24.5H9C9,26.34,9,28.19,9,30a16.34,16.34,0,0,0,.14,2.1c.44,3,1.84,5.31,4.61,6.54a10.15,10.15,0,0,0,4,.81c3.66,0,7.33,0,11,0a13.49,13.49,0,0,0,2.38-.19,7.54,7.54,0,0,0,6.23-5.07A11.32,11.32,0,0,0,38,30.33Q38,24.67,38,19a13.9,13.9,0,0,0-.14-2.14c-.46-3.13-1.95-5.47-4.87-6.65a9.85,9.85,0,0,0-3.67-.7c-3.89,0-7.77,0-11.65,0a9.42,9.42,0,0,0-4.2.92c-2.94,1.44-4.24,4-4.43,7.24C8.92,20,9,22.23,9,24.5Z"/><path class="cls-2" d="M9,24.5c0-2.27-.1-4.55,0-6.81.19-3.21,1.49-5.8,4.43-7.24a9.42,9.42,0,0,1,4.2-.92c3.88,0,7.76,0,11.65,0a9.85,9.85,0,0,1,3.67.7c2.92,1.18,4.41,3.52,4.87,6.65A13.9,13.9,0,0,1,38,19q0,5.67,0,11.32a11.32,11.32,0,0,1-.64,3.88,7.54,7.54,0,0,1-6.23,5.07,13.49,13.49,0,0,1-2.38.19c-3.66,0-7.33,0-11,0a10.15,10.15,0,0,1-4-.81C11,37.44,9.57,35.14,9.13,32.13A16.34,16.34,0,0,1,9,30c0-1.84,0-3.69,0-5.53ZM23.51,12.35v0H22.38c-1.91,0-3.83,0-5.73.16A4.86,4.86,0,0,0,12.1,16a9,9,0,0,0-.43,2.63c0,3.77,0,7.55,0,11.32a12.62,12.62,0,0,0,.09,1.51,5.26,5.26,0,0,0,4.94,5.05c1.81.14,3.63.15,5.44.14,2.74,0,5.49,0,8.22-.15A4.8,4.8,0,0,0,34.9,33a9.32,9.32,0,0,0,.42-2.73c0-3.73,0-7.45,0-11.17a15.25,15.25,0,0,0-.09-1.66,5.25,5.25,0,0,0-4.1-4.81,8.18,8.18,0,0,0-1.91-.23C27.33,12.34,25.42,12.35,23.51,12.35Z"/><path class="cls-1" d="M23.51,12.35c1.91,0,3.82,0,5.73,0a8.18,8.18,0,0,1,1.91.23,5.25,5.25,0,0,1,4.1,4.81,15.25,15.25,0,0,1,.09,1.66c0,3.72,0,7.44,0,11.17A9.32,9.32,0,0,1,34.9,33a4.8,4.8,0,0,1-4.55,3.56c-2.73.16-5.48.14-8.22.15-1.81,0-3.63,0-5.44-.14a5.26,5.26,0,0,1-4.94-5.05A12.62,12.62,0,0,1,11.66,30c0-3.77,0-7.55,0-11.32A9,9,0,0,1,12.1,16a4.86,4.86,0,0,1,4.55-3.56c1.9-.15,3.82-.12,5.73-.16h1.13Zm7.63,12.18a7.79,7.79,0,0,0-7.61-8,7.77,7.77,0,0,0-7.67,8,7.78,7.78,0,0,0,7.66,7.94A7.78,7.78,0,0,0,31.14,24.53Zm0-9.54a1.55,1.55,0,0,0-1.51,1.59,1.54,1.54,0,0,0,1.56,1.58,1.59,1.59,0,0,0,0-3.17Z"/><path class="cls-2" d="M31.14,24.53a7.78,7.78,0,0,1-7.62,7.93,7.78,7.78,0,0,1-7.66-7.94,7.77,7.77,0,0,1,7.67-8A7.79,7.79,0,0,1,31.14,24.53Zm-2.71,0a4.93,4.93,0,1,0-4.93,5.14A5,5,0,0,0,28.43,24.5Z"/><path class="cls-2" d="M31.17,15a1.59,1.59,0,0,1,0,3.17,1.54,1.54,0,0,1-1.56-1.58A1.55,1.55,0,0,1,31.17,15Z"/><path class="cls-1" d="M28.43,24.5a4.93,4.93,0,1,1-4.93-5.14A5,5,0,0,1,28.43,24.5Z"/></g></g></svg>