<?xml version="1.0" encoding="utf-8"?>
<!-- Generator: Adobe Illustrator 26.0.3, SVG Export Plug-In . SVG Version: 6.00 Build 0)  -->
<svg version="1.1" id="Layer_1" xmlns="http://www.w3.org/2000/svg" xmlns:xlink="http://www.w3.org/1999/xlink" x="0px" y="0px"
	 viewBox="0 0 143.22 118" style="enable-background:new 0 0 143.22 118;" xml:space="preserve">
<style type="text/css">
	.st0{fill:#333333;}
	.st1{fill:#FFFFFF;}
	.st2{fill:#412312;}
	.st3{fill:#67308F;}
</style>
<g>
	<path class="st0" d="M14.02,112.45c-1.33,0-2.42,0.01-3.71,0.01c0-1.2-0.01-2.34-0.01-3.78c-0.95,1.02-1.55,2.2-2.39,2.4
		c-0.61,0.14-1.53-1.01-2.39-1.64c-0.09,0.71-0.21,1.73-0.35,2.96c-1.1,0.07-2.17,0.13-3.13,0.19c-0.02-4.9-0.03-9.62-0.04-14.27
		c5.49-1.36,4.3,3.41,6.02,5.81c0.74-1.69,1.28-3.27,2.1-4.68c0.39-0.66,1.5-1.53,1.97-1.38c0.77,0.25,1.78,1.25,1.81,1.98
		C14.09,104.08,14.01,108.14,14.02,112.45z"/>
	<path class="st0" d="M120.3,97.96c4.69-1.76,4.63,2.25,6.28,5.05c0.15-2.15,0.25-3.65,0.37-5.29c1.08,0,2.06-0.01,2.91-0.01
		c0.01,4.51,0.06,8.97-0.02,13.43c-0.01,0.34-0.93,0.99-1.34,0.93c-0.88-0.13-2.13-0.39-2.47-1.02c-0.99-1.83-1.6-3.85-2.86-5.72
		c0.01,2.24,0.01,4.47,0.02,6.76c-1.36,0-2.43,0.01-3.8,0.01C119.7,107.22,120.01,102.49,120.3,97.96z"/>
	<path class="st0" d="M69.81,108.23c1.35,0,2.71,0.04,4.06-0.03c1.24-0.07,1.74,0.42,1.68,1.66c-0.06,1.1,0.2,2.24-1.55,2.27
		c-2.35,0.04-4.71,0.23-7.05,0.42c-1.3,0.1-1.73-0.53-1.67-1.69c0.2-3.82,0.35-7.64,0.68-11.44c0.05-0.54,0.93-1.41,1.46-1.45
		c2.7-0.16,5.41-0.08,8.26-0.09c0,0.85,0.01,1.76,0.01,2.89c-1.93,0.42-3.89,0.84-5.84,1.26c0,0.23,0,0.45,0,0.68
		c0.91,0.07,1.81,0.19,2.72,0.2c1.02,0.01,1.9,0.01,2.04,1.39c0.14,1.36-0.35,2.09-1.7,2.3c-1.07,0.17-2.14,0.39-3.2,0.59
		C69.73,107.54,69.77,107.89,69.81,108.23z"/>
	<path class="st0" d="M44.2,98.34c1.65-0.19,3.24-0.42,4.85-0.54c1.67-0.13,3.25,0.01,4.17,1.77c0.94,1.8,1.06,3.79-0.22,5.19
		c-1.44,1.57-0.85,2.66-0.06,4.05c0.95,1.68,0.17,3.31-1.78,3.58c-0.42,0.06-1.09-0.52-1.4-0.98c-0.72-1.05-1.28-2.2-1.91-3.31
		c-0.21,0.05-0.41,0.11-0.62,0.16c-0.06,0.68-0.15,1.36-0.19,2.04c-0.13,2.1-0.96,2.78-2.97,2.22c-0.43-0.12-1.06-0.75-1.03-1.11
		C43.37,107.1,43.79,102.8,44.2,98.34z M50.02,101.08c-2.9-0.01-3.06,0.18-2.88,3.23C48.86,103.96,50.18,103.32,50.02,101.08z"/>
	<path class="st0" d="M101.5,107.15c1.71,3.47,1.71,3.47-1.27,5.12c-0.71-1.25-1.38-2.53-2.16-3.75c-0.23-0.35-0.75-0.52-1.13-0.78
		c-0.22,0.41-0.58,0.8-0.62,1.22c-0.09,0.94-0.02,1.9-0.02,3.03c-1.17,0-2.15,0.01-3.54,0.01c0.23-4.43,0.44-8.8,0.71-13.17
		c0.02-0.31,0.52-0.82,0.82-0.85c2.26-0.19,4.55-0.51,6.79-0.32c1.61,0.13,2.31,1.73,2.11,3.18
		C102.93,102.73,102.23,104.54,101.5,107.15z M96.88,103.38c0.2,0.2,0.41,0.4,0.61,0.61c0.74-0.78,1.47-1.56,2.21-2.33
		C97.57,100.99,96.74,101.66,96.88,103.38z"/>
	<path class="st0" d="M55.19,97.98c3.83-0.33,4.11-0.01,3.75,3.25c-0.19,1.75-0.33,3.53-0.3,5.29c0.01,0.62,0.61,1.23,0.95,1.85
		c0.46-0.59,1.23-1.14,1.31-1.78c0.26-2.27,0.33-4.56,0.37-6.84c0.03-1.69,0.91-2.3,2.38-1.9c0.63,0.17,1.54,0.96,1.55,1.48
		c0.02,2.87-0.02,5.76-0.39,8.6c-0.49,3.74-4.65,5.85-8.13,4.34c-1.86-0.81-2.31-2.49-2.24-4.21
		C54.55,104.71,54.92,101.38,55.19,97.98z"/>
	<path class="st0" d="M116.88,103.06c1.13,2.29,0.29,3.02-1.74,3.26c-2.56,0.3-2.55,0.4-2.86,1.94c1.98-0.01,3.92-0.01,5.98-0.02
		c0,1.23,0.01,2.23,0.01,3.44c-3.12,0.21-6.18,0.41-9.46,0.63c-0.01-2.96-0.04-5.79-0.01-8.62c0.01-1.03,0.32-2.07,0.22-3.08
		c-0.23-2.4,0.92-3.07,3.11-2.95c2.12,0.11,4.26,0.01,6.56,0.01c0,0.92,0.01,1.9,0.01,2.92c-2.04,0.4-4.03,0.77-6,1.22
		c-0.09,0.02-0.01,0.77-0.01,1.27C114.18,103.07,115.56,103.06,116.88,103.06z"/>
	<path class="st0" d="M130.78,111.96c0.2-4.24,0.38-8.36,0.6-12.48c0.02-0.41,0.17-0.93,0.45-1.18c2.68-2.4,8.22-0.66,9.04,2.82
		C142.45,107.78,137.87,112.86,130.78,111.96z M134.31,108.22c2.59-0.74,4.22-4.81,2.83-6.65c-0.27-0.36-1-0.55-1.49-0.52
		c-0.38,0.03-1.01,0.51-1.03,0.83C134.44,103.96,134.4,106.05,134.31,108.22z"/>
	<path class="st0" d="M86.18,112.19c-1.36,0.12-2.42,0.21-3.84,0.33c0.08-1.76,0.15-3.26,0.23-4.77c0.15-2.72,0.36-5.44,0.43-8.17
		c0.04-1.4,0.58-1.99,1.98-2c1.92-0.01,3.83-0.24,5.75-0.18c0.62,0.02,1.72,0.63,1.73,0.99c0.03,1.05,0.43,2.52-1.28,2.85
		c-1.08,0.21-2.21,0.22-3.27,0.51c-0.5,0.14-0.88,0.71-1.31,1.09c0.54,0.3,1.06,0.69,1.64,0.87c0.39,0.12,0.95-0.22,1.3-0.06
		c0.67,0.31,1.78,0.85,1.75,1.24c-0.06,0.84-0.76,2.37-1.11,2.34C86.55,106.97,85.33,108.66,86.18,112.19z"/>
	<path class="st0" d="M38.69,112.34c-1.02,0-2.03,0.01-3.33,0.01c-0.01-3.37-0.02-6.74-0.03-10.13c-0.55-0.11-0.83-0.23-1.11-0.21
		c-1.25,0.07-2.58,0.45-2.45-1.68c0.11-1.7,0.38-2.82,2.5-2.66c1.68,0.13,3.39-0.09,5.09-0.18c3.16-0.18,3.46,0.13,2.98,3.48
		c-2.98-0.15-2.84,1.9-2.88,4.09C39.42,107.38,38.99,109.71,38.69,112.34z"/>
	<path class="st0" d="M14.77,98.77c0.92-0.35,1.73-0.66,2.77-1.06c0.75,1.75,1.46,3.4,2.41,5.63c0.6-1.64,1.05-2.8,1.45-3.97
		c0.51-1.5,2.39-2.28,3.64-1.4c0.29,0.2,0.45,0.88,0.35,1.26c-0.23,0.92-0.67,1.78-1,2.68c-1.25,3.38-2.49,6.76-3.74,10.13
		c0.18,0.12,0.36,0.23,0.54,0.35c-1.06,0-2.12,0.01-3.48,0.01C19.06,107.35,15.62,103.51,14.77,98.77z"/>
	<path class="st0" d="M108.49,97.71c-0.15,3.12-0.3,6.25-0.45,9.39c-0.03,0.57-0.11,1.15-0.08,1.72c0.18,3.59,0.19,3.59-3.48,3.33
		c-0.01-3.12-0.04-6.24-0.02-9.36c0.01-0.88,0.19-1.75,0.24-2.63C104.83,97.33,105.38,96.95,108.49,97.71z"/>
	<path class="st1" d="M50.02,101.08c0.17,2.25-1.16,2.88-2.88,3.23C46.95,101.26,47.11,101.07,50.02,101.08z"/>
	<g>
		<path class="st2" d="M85.35,88.68c0.02-0.08,0.03-0.16,0.05-0.24c0.45-0.03,0.91-0.06,1.36-0.1c0.16-0.01,0.32-0.05,0.48-0.09
			c5.18-1.1,8.45-4.34,9.93-9.29c1.48-4.97,0.36-9.4-3.46-13.02c-5.12-4.86-10.26-9.71-15.44-14.51
			c-7.16-6.65-18.01-6.62-25.14,0.08c-5.15,4.83-10.25,9.72-15.35,14.6c-3.58,3.43-4.72,7.6-3.6,12.39
			c1.51,6.44,7.09,10.57,13.68,10c2.35-0.2,4.68-0.75,6.97-1.32c3.34-0.83,6.63-1.85,10.12-1.97c4.36-0.16,8.51,0.86,12.69,1.89
			C80.18,87.7,82.78,88.15,85.35,88.68z M62.73,24.84c-0.16-3.94-0.93-7.8-3.48-11.07c-1.78-2.29-4.07-3.75-7.05-3.81
			c-3.93-0.07-6.59,2.05-8.52,5.25c-1.55,2.56-2.21,5.41-2.39,8.36c-0.3,4.7,0.73,9.06,3.78,12.77c3.94,4.79,9.99,4.75,13.91-0.06
			C61.66,32.97,62.65,29.1,62.73,24.84z M90.05,24.7c-0.06-0.66-0.11-1.57-0.23-2.47c-0.43-3.28-1.38-6.37-3.58-8.92
			c-2.39-2.77-5.38-4.08-9.05-3.2c-2.86,0.69-4.82,2.6-6.27,5.07c-1.39,2.37-2.06,4.98-2.29,7.69c-0.42,4.83,0.51,9.34,3.6,13.21
			c4,5,10.17,4.97,14.15-0.04C88.96,32.81,89.92,29.02,90.05,24.7z M38.98,45.93c-0.08-0.91-0.13-1.82-0.26-2.71
			c-0.62-4.28-2.22-8.08-5.59-10.94c-4.19-3.55-9.51-2.22-11.65,2.84c-1.3,3.07-1.33,6.26-0.73,9.48c0.7,3.75,2.09,7.17,4.92,9.86
			c4.17,3.97,9.81,2.83,12.11-2.45C38.64,50.08,38.94,48.03,38.98,45.93z M92.43,45.6c0.01,2.65,0.39,4.9,1.54,6.97
			c2.25,4.05,6.73,5.18,10.57,2.58c1-0.68,1.95-1.56,2.67-2.53c2.88-3.89,4.02-8.33,3.71-13.13c-0.16-2.4-0.83-4.67-2.32-6.63
			c-2.15-2.83-5.58-3.66-8.68-1.94c-1.17,0.65-2.27,1.55-3.15,2.55C93.66,37.01,92.49,41.28,92.43,45.6z"/>
		<path class="st3" d="M83.28,85.61c-2.57-0.53-5.16-0.98-7.71-1.6c-4.17-1.03-8.33-2.05-12.69-1.89
			c-3.49,0.13-6.78,1.14-10.12,1.97c-2.29,0.57-4.63,1.11-6.97,1.32c-6.59,0.57-12.17-3.56-13.68-10c-1.12-4.78,0.02-8.96,3.6-12.39
			c5.1-4.88,10.21-9.77,15.35-14.6c7.13-6.7,17.98-6.73,25.14-0.08c5.17,4.81,10.31,9.65,15.44,14.51
			c3.81,3.62,4.94,8.06,3.46,13.02c-1.48,4.95-4.75,8.2-9.93,9.29c-0.16,0.03-0.32,0.07-0.48,0.09c-0.45,0.04-0.91,0.07-1.36,0.1
			C83.32,85.44,83.3,85.52,83.28,85.61z"/>
		<path class="st3" d="M62.73,24.84c-0.08,4.26-1.07,8.14-3.76,11.44c-3.92,4.81-9.97,4.85-13.91,0.06
			c-3.05-3.71-4.08-8.07-3.78-12.77c0.19-2.95,0.85-5.79,2.39-8.36c1.93-3.2,4.59-5.32,8.52-5.25c2.97,0.05,5.27,1.52,7.05,3.81
			C61.8,17.04,62.57,20.89,62.73,24.84z"/>
		<path class="st3" d="M90.05,24.7c-0.13,4.31-1.08,8.1-3.66,11.35c-3.99,5.01-10.16,5.04-14.15,0.04
			c-3.09-3.87-4.01-8.37-3.6-13.21c0.23-2.71,0.9-5.32,2.29-7.69c1.45-2.48,3.41-4.38,6.27-5.07c3.67-0.88,6.66,0.43,9.05,3.2
			c2.2,2.55,3.15,5.64,3.58,8.92C89.94,23.14,89.99,24.05,90.05,24.7z"/>
		<path class="st3" d="M38.98,45.93c-0.05,2.1-0.34,4.15-1.19,6.09c-2.31,5.27-7.94,6.42-12.11,2.45c-2.82-2.69-4.22-6.11-4.92-9.86
			c-0.6-3.22-0.57-6.41,0.73-9.48c2.14-5.07,7.46-6.39,11.65-2.84c3.37,2.85,4.97,6.66,5.59,10.94
			C38.86,44.11,38.9,45.02,38.98,45.93z"/>
		<path class="st3" d="M92.43,45.6c0.07-4.32,1.23-8.58,4.34-12.12c0.88-1.01,1.99-1.9,3.15-2.55c3.1-1.73,6.53-0.89,8.68,1.94
			c1.49,1.96,2.16,4.23,2.32,6.63c0.32,4.8-0.83,9.24-3.71,13.13c-0.72,0.97-1.67,1.85-2.67,2.53c-3.83,2.6-8.32,1.47-10.57-2.58
			C92.81,50.5,92.44,48.24,92.43,45.6z"/>
	</g>
</g>
</svg>
