<svg xmlns="http://www.w3.org/2000/svg" viewBox="0 0 383 319"><defs><style>.cls-1{fill:#e6e6e6;}.cls-2{fill:#662d91;}</style></defs><g id="Layer_2" data-name="Layer 2"><g id="Layer_2-2" data-name="Layer 2"><rect class="cls-1" width="383" height="319"/><path class="cls-2" d="M233.69,82.68A5,5,0,0,1,231,86.4a6.25,6.25,0,0,1-2.44.55C223,87,217.51,87,212,87c-3.85,0-6.08-3.43-4.67-7.13.82-2.16,1.69-4.3,2.6-6.62L204,74.94c.19,1.09.37,2.16.56,3.23.53,3.06,1.09,6.11,1.61,9.18a5,5,0,0,1-3.92,6,4.87,4.87,0,0,1-5.62-4.19q-1.5-8.34-2.95-16.7a5,5,0,0,1,3.81-5.94c2.78-.83,5.57-1.64,8.35-2.46l.8-.24c-.51-2.46-1-4.89-1.53-7.39-.68.65-1.25,1.25-1.87,1.79a18.41,18.41,0,0,1-10.15,4.28,24.08,24.08,0,0,1-3.49.24,5.33,5.33,0,0,1-2.06-.5,1.66,1.66,0,0,0-1.16-.1c-2.07.42-3.2,1.73-4.12,3.66-2.37,5-5,9.87-7.45,14.8a3.37,3.37,0,0,0-.36,1.59c.07,2.91.19,5.81.32,8.72a2.28,2.28,0,0,1-1,2.23,2.11,2.11,0,0,1-3.18-1.9c-.05-.92-.09-1.84-.1-2.76s0-1.78,0-2.67l-.2,0c-.2,1.21-.39,2.41-.58,3.62-.1.71-.2,1.41-.31,2.12-.23,1.5-1.21,2.32-2.49,2.1s-1.87-1.31-1.65-2.79c.5-3.35,1-6.71,1.51-10.05.08-.48-.09-.64-.41-.9a3.66,3.66,0,0,0-4.72-.38,9.87,9.87,0,0,1-1.86.78,1.53,1.53,0,0,1-2.16-.83,1.6,1.6,0,0,1,1.05-2.12c1.07-.46,2.17-.85,3.23-1.35a2.38,2.38,0,0,0,1-.9C165,71.36,167,67.65,169.08,64a3,3,0,0,1,.76-.9c2.57-2,5.16-3.89,7.72-5.86a.77.77,0,0,1,1.05,0c1,.61,1.95,1.21,3,1.76a1.27,1.27,0,0,0,.88.07c.6-.16,1.17-.42,1.75-.63a4.14,4.14,0,0,0,2.46-1.63,3.06,3.06,0,0,1,2.73-1.31,13.45,13.45,0,0,0,9.34-3.54,12.41,12.41,0,0,0,4-7.9,8.74,8.74,0,0,1,7.58-7.7A8.41,8.41,0,0,1,218,39.08a7.73,7.73,0,0,1,1.58,3.81c1.31,6.34,2.61,12.67,3.94,19a7.31,7.31,0,0,1-.36,4.34q-2,5.1-4,10.21c-.06.16-.09.33-.16.58h2.49c2.11,0,4.22.09,6.33,0,3.2-.18,5.33,1.44,5.92,4.32Z"/><path class="cls-2" d="M208.36,15a9.43,9.43,0,1,1-9.21,9.32A9.33,9.33,0,0,1,208.36,15Z"/><path class="cls-2" d="M181,60.26c-1.35-2.16-2.58-4.29-4-6.3a40.64,40.64,0,0,0-3.37-4.05c-.85-.94-1.16-1.67-.8-2.41a2.15,2.15,0,0,1,2.53-.94c.78.23,1.48.71,2.23,1a1.18,1.18,0,0,0,.94,0,9,9,0,0,1,3.52-1.35,5.6,5.6,0,0,0,2.75-1.39,20.46,20.46,0,0,1,2.65-2.09c1.9-1.27,3.29.06,3.77,1.57.64,2-.13,3.74-1.31,5.31a1.41,1.41,0,0,1-.3.34c-1.28.81-1.18,1.87-.55,3a7.13,7.13,0,0,1,.36,1Z"/></g></g></svg>